<svg width="94" height="30" viewBox="0 0 94 30" fill="none" xmlns="http://www.w3.org/2000/svg">
<path d="M10.8846 1.793L10.8653 1.92984C10.9619 1.98848 10.9619 2.00803 11.0781 2.02758C11.0974 2.18396 11.1554 2.20351 11.1554 2.28169C11.1554 2.43808 10.8846 2.53582 10.7493 2.57491C10.7298 2.51626 10.7298 2.39898 10.7105 2.34033C10.6138 2.16441 10.3624 2.02758 10.1882 2.00803C10.0916 2.00803 9.8013 2.02758 9.7433 2.12532C9.72397 2.14486 9.72397 2.1644 9.72397 2.20351C9.93677 2.24261 10.2462 2.41854 10.2076 2.67265C10.1882 2.82902 10.0916 2.92677 10.0529 3.04405C9.91744 2.98541 9.89811 2.88767 9.66598 2.82902C9.3952 2.75084 8.93094 2.96587 8.89211 3.23953C8.98893 3.21998 9.12424 3.16134 9.20173 3.18088C9.43386 3.20044 9.56917 3.41546 9.56917 3.64998L9.54984 3.78686C9.37586 3.78686 9.43386 3.74777 9.20173 3.74777C8.89211 3.74777 8.54401 4.04099 8.50534 4.37329C8.73747 4.29512 8.73747 4.19733 8.91161 4.23641C9.00826 4.17787 9.08558 4.25604 9.16307 4.31458C9.20173 4.35367 9.22106 4.39291 9.24039 4.45146C9.29838 4.54925 9.41453 4.82284 9.3952 4.9401C9.37587 5.01843 9.31771 5.01843 9.25972 5.03789C9.16307 5.05752 9.06625 5.11606 8.98893 5.15515C8.89211 5.23331 8.77613 5.40928 8.7568 5.52653L8.73747 5.7612C8.85345 5.70249 8.95027 5.52653 9.08558 5.50707C9.22106 5.46799 9.41453 5.60486 9.49185 5.70249C9.53051 5.74158 9.56917 5.80029 9.60799 5.85883C9.66598 5.93717 9.70464 5.95663 9.70464 6.05442C9.80129 6.13259 9.5885 6.1913 9.49185 6.26947C9.3952 6.34764 9.25972 6.62123 9.24039 6.75811C9.22106 6.83627 9.24039 6.91444 9.27905 6.97315C9.3952 6.87536 9.3952 6.75811 9.49185 6.67994C9.53051 6.66031 9.56917 6.66031 9.60799 6.64085C9.76263 6.58214 9.8013 6.64085 9.93677 6.71902C9.99476 6.73848 10.1109 6.83627 10.1109 6.91444C10.1302 6.99261 9.99476 7.07078 9.93677 7.16858C9.82063 7.364 9.84012 7.40325 9.84012 7.61813C9.84012 7.67684 9.84012 7.81372 9.91744 7.83318C9.9561 7.8528 9.97543 7.81372 9.99476 7.77463V7.67684C10.0141 7.57905 10.0916 7.50088 10.1689 7.44233C10.3044 7.38362 10.459 7.40325 10.5752 7.48142L10.6525 7.53996L10.7686 7.57904L10.8653 7.65721C11.0008 7.71592 10.9814 7.67684 11.0781 7.81372C11.1361 7.81372 11.1747 7.8528 11.1361 7.91135C11.1361 7.93097 10.9619 8.14602 10.9233 8.26327L10.9039 8.38052C10.8846 8.63466 10.9426 8.59557 10.9426 8.75191L11.0201 8.8497C11.2522 8.79099 11.0781 8.75191 11.1361 8.55649C11.2136 8.38052 11.3875 8.30236 11.5617 8.32198C11.6778 8.32198 11.7745 8.38052 11.8711 8.43923L12.2194 8.55649L12.316 8.6152C12.3549 8.63466 12.5482 8.69337 12.587 8.69337C12.645 8.69337 12.6836 8.67374 12.761 8.69337L12.9931 8.8497L13.4573 9.10384L13.5928 9.22109L13.8829 9.37743C14.0184 9.47522 14.0957 9.57301 14.2892 9.57301C14.3085 9.65118 14.4054 9.70973 14.4827 9.74881C14.618 9.82715 14.8889 10.0226 15.0243 10.042C15.0629 10.1594 15.3532 10.3158 15.4692 10.3352C15.5078 10.4136 15.5853 10.4527 15.6626 10.4917L15.8175 10.6285L15.9528 10.6872L16.1076 10.785L16.2236 10.8826L16.4364 11.0195L17.0747 11.4105C17.2102 11.4887 17.3844 11.7037 17.5397 11.7232C17.5777 11.86 17.8486 12.1336 17.9643 12.2705C18.0799 12.4659 18.1774 12.6615 18.2154 12.8766V13.0133L18.255 13.1502C18.2749 13.2089 18.2352 13.3065 18.2154 13.3847L18.1774 13.5802L18.0221 13.8735C17.9461 13.9907 17.8866 14.0689 17.771 14.1667C17.5198 14.3817 17.1327 14.5381 16.804 14.5381C16.7073 14.5381 16.5332 14.5184 16.4364 14.499L16.301 14.4599C15.9721 14.4012 15.74 14.323 15.4305 14.1861L14.7728 13.8929C14.6761 13.8344 14.56 13.7757 14.4633 13.7562C14.4827 13.6975 14.5213 13.6388 14.502 13.5802C14.4827 13.5215 14.3472 13.4434 14.2892 13.4043C14.0957 13.2479 13.8636 13.1307 13.6895 12.9547C13.5155 12.7788 13.4962 12.6419 13.6895 12.4856C13.7283 12.4268 13.767 12.4074 13.8443 12.3683C13.9604 12.3096 13.9216 12.2901 14.0764 12.251C13.8636 12.1336 13.3994 12.2901 13.2252 12.4465L13.0124 12.681C12.9544 12.7006 12.8964 12.6615 12.8578 12.6224C12.761 12.5443 12.6063 12.3878 12.6643 12.251C12.7223 12.1142 12.8964 12.036 12.9351 11.9969C12.9544 11.9578 12.9544 11.9382 12.9544 11.9187L13.1479 11.86C13.0513 11.821 12.8964 11.8404 12.7998 11.8795C12.4902 11.9578 12.1227 12.212 12.0839 12.5637C12.0839 12.6419 12.1227 12.7006 12.0839 12.7201C12.0259 12.7397 11.8518 12.6615 11.7938 12.6419L11.0394 12.3683C10.8846 12.3292 10.8846 12.3487 10.7686 12.3292L10.5945 12.2705L10.1109 12.212L9.7433 12.1142C9.49185 12.0751 8.65999 11.9773 8.42786 11.9773H8.07975L7.57683 12.0164C7.44136 12.036 7.49935 12.0555 7.30588 12.0555C7.30588 12.0164 7.32538 11.9773 7.30588 11.9578C7.26722 11.8991 7.07375 11.8991 7.01576 11.8991L6.74497 11.9187L6.35804 11.9382C6.26139 11.9382 6.08725 11.9382 6.00993 11.86C5.79713 11.6646 6.02926 11.3323 6.06792 11.1758C5.87445 11.2345 5.68099 11.4886 5.60366 11.6841L5.58433 11.8013L5.52634 11.9187L5.50701 12.1923L5.565 12.3096C5.37154 12.3878 5.23606 12.5246 5.02343 12.5052C4.75247 12.4856 4.75247 12.036 4.79113 11.8404C4.69448 11.8991 4.67515 11.9578 4.63649 12.0555C4.52035 12.2705 4.5785 12.212 4.53968 12.4074C4.53968 12.4856 4.52035 12.5246 4.52035 12.6028L4.5785 12.8179C4.5785 12.896 4.71381 13.0524 4.69448 13.1307C4.65582 13.2089 4.46236 13.3065 4.3657 13.287C4.30755 13.287 4.24956 13.2674 4.2109 13.2283C4.09475 13.1307 3.9981 12.8569 4.01743 12.681C3.90145 12.7982 3.90145 12.9547 3.86262 13.0914C3.90145 13.1502 3.90145 13.3065 3.90145 13.3847C3.94011 13.5215 3.9981 13.6388 4.07542 13.7562C4.15291 13.8344 4.19157 13.8735 4.28822 13.9125C4.34637 13.932 4.4237 13.932 4.44303 13.9907C4.46236 14.0494 4.38503 14.2058 4.3657 14.2643L4.23023 14.8507V15.0658L4.26889 15.6131L4.38503 15.9454L4.61716 16.3364L4.90728 16.6297L5.29422 17.0207L5.42953 17.0792L5.52634 17.1574L5.93244 17.3724L6.12591 17.5093L6.28072 17.5679L6.62899 17.822L6.74497 17.8611L6.84162 17.9198L6.9771 17.9589L7.11258 18.0567L7.30588 18.1543L7.67348 18.2521C7.71214 18.3499 7.84762 18.3499 7.92494 18.389L8.09908 18.448L8.23456 18.5057L8.58267 18.6228L8.69881 18.6822L8.85345 18.7218L9.00826 18.7795L9.22106 18.8388L9.33704 18.8586C9.41453 18.8966 9.41453 18.9361 9.5885 18.9955L9.82063 19.0532L9.99476 19.1324L10.3044 19.2495L10.4397 19.3072L10.6525 19.3864L10.7493 19.4441L11.1167 19.581L11.3489 19.6783L11.4457 19.7376L11.6585 19.8349H11.7358C11.7938 19.9141 11.8325 19.8943 11.9099 19.9339L12.0453 20.0114L12.1807 20.0708L12.3354 20.1483L12.6643 20.2456L12.9351 20.3824C13.1092 20.4616 13.264 20.5985 13.4573 20.6166V20.676C13.5348 20.6958 13.7283 20.7931 13.767 20.8722C13.8443 20.8722 13.825 20.9102 13.9411 20.9893C14.0571 21.047 14.1537 21.1641 14.2505 21.2631L14.444 21.4379C14.502 21.4775 14.4827 21.4973 14.5793 21.5748L14.7728 21.7512L14.9083 21.8881C14.9663 21.9458 14.9856 21.9277 15.0629 22.025L15.2757 22.2987L15.4885 22.5527L15.682 22.8842L15.7593 22.9831L15.8368 23.1579L15.9334 23.2948L16.0109 23.5306L16.0882 23.6279L16.1076 23.7648L16.1656 23.9017L16.2236 24.2332L16.243 24.3898C16.2624 24.4871 16.2817 24.6059 16.2817 24.7032L16.243 24.8401C16.2236 24.9374 16.2042 25.0346 16.1656 25.1138C15.9721 25.5047 15.5467 25.8559 15.1017 25.8559C14.8501 25.8559 14.6568 25.8757 14.4054 25.7784C14.0957 25.6795 13.8443 25.4849 13.6122 25.2507C13.4767 25.1336 13.3607 25.0149 13.2446 24.878L13.0706 24.6438L12.8964 24.4294L12.703 24.1359L12.6257 23.9594L12.5288 23.8423L12.2387 23.3938L11.523 22.65L10.7493 21.8683L9.93677 21.3406L9.70464 21.1839C9.51118 21.0866 9.14374 21.0091 8.91161 20.9893L8.54401 20.8904C8.25389 20.8524 7.94427 20.8722 7.63482 20.8722C7.57683 20.8722 7.51868 20.8722 7.46069 20.9102C7.32538 20.9695 7.20923 21.1641 7.26722 21.3208C7.36404 21.6341 7.75081 21.517 7.78963 21.517L7.88628 21.5368L8.04109 21.5748C8.11841 21.5748 8.13774 21.555 8.25389 21.5748L8.56334 21.6737C8.62133 21.6919 8.64066 21.7314 8.71814 21.7512C8.81479 21.7908 8.91161 21.7908 9.00826 21.8485L9.14374 21.9656L9.29838 22.0448L9.5885 22.2789C9.66598 22.3383 9.74331 22.4554 9.85945 22.4752V22.5527L10.0916 22.7292L10.1882 22.904L10.4397 23.2371L10.5945 23.4911L10.6525 23.5884L10.7105 23.7054L10.8653 23.9792C10.5752 24.0386 10.459 24.4294 10.4783 24.7032L10.5172 24.8598H10.5752C10.6332 24.6834 10.6138 24.5861 10.8266 24.5465L10.7686 24.7609L10.6911 24.9769V25.2111L10.7686 25.2886C10.8846 25.2111 10.788 25.1517 10.9039 25.0149C10.9619 24.9571 11.0781 24.9571 11.0781 25.0544C11.0781 25.1138 11.0394 25.1913 11.0201 25.2507C11.0008 25.3282 10.9814 25.6217 11.0008 25.6993C11.0008 25.7388 11.0394 25.7586 11.0588 25.7784L11.1167 25.5624C11.1554 25.4849 11.2715 25.4255 11.3682 25.4651C11.4069 25.4849 11.4457 25.5426 11.4843 25.5624C11.6585 25.719 11.581 25.6795 11.6971 25.8559L11.8325 26.0324L11.9679 26.2666C12.0066 26.3259 12.1227 26.443 12.1614 26.4628C12.2001 26.4628 12.2387 26.443 12.2774 26.443C12.2967 26.5601 12.3935 26.6772 12.4322 26.7745L12.4902 26.9114C12.5675 27.0878 12.7223 27.4589 12.8964 27.5562V27.6155C12.7223 27.6931 12.6063 27.8893 12.5482 28.0658L12.5095 28.2999L12.5482 28.5539L12.6836 28.8672L12.8385 28.8475C12.7803 28.6116 12.7998 28.2604 13.1092 28.2208C13.1672 28.2026 13.3607 28.2604 13.4187 28.2801C13.6508 28.3577 13.6895 28.5341 13.8636 28.6116L14.1537 28.7683L14.3279 28.8079C14.4247 28.8475 14.5213 28.9052 14.618 28.925L14.8696 28.9448C15.0436 28.9843 15.0629 29.0223 15.2564 28.9843C15.4112 28.9645 15.5467 28.9052 15.7013 28.8672C15.9141 28.7881 16.0689 28.7304 16.243 28.5737C16.3204 28.4945 16.3397 28.5341 16.359 28.417C16.4364 28.3972 16.4558 28.3774 16.4752 28.2999C16.5912 28.2801 16.5912 28.2406 16.6685 28.1433C16.746 28.0658 16.8233 28.0658 16.8426 27.9289C16.9394 27.8893 16.9781 27.8101 17.0168 27.7326L17.2489 27.2824L17.423 26.9707C17.4617 26.8536 17.4617 26.8141 17.481 26.7547L17.5397 26.6574C17.5777 26.5205 17.6751 26.1495 17.6751 26.0126L17.7131 25.7388L17.733 25.4651V25.1715C18.0419 25.1715 18.3129 25.0149 18.4483 24.723L18.4863 24.6059C18.5062 24.4871 18.5442 24.4294 18.5062 24.3123C18.4103 24.4096 18.3905 24.4871 18.2749 24.5663C18.0221 24.7609 17.8288 24.624 17.6553 24.3898C17.6157 24.3321 17.5578 24.1557 17.5397 24.0765L17.5198 23.9396L17.4037 23.4713L17.3649 23.3344C17.2875 23.1002 17.0941 22.8462 17.0747 22.6104C17.3262 22.5527 17.5578 22.1025 17.5397 21.8683C17.5397 21.7908 17.481 21.6539 17.4423 21.5748C17.3455 21.7512 17.3455 22.0052 17.1327 22.0827C17.0361 22.1223 16.9201 22.0827 16.8233 22.0448C16.5525 21.9277 16.4752 21.771 16.301 21.555C16.243 21.4973 16.0882 21.3208 16.0882 21.2433C16.0689 21.1641 16.1849 21.0668 16.243 21.0091C16.359 20.8327 16.417 20.5985 16.359 20.4022C16.3397 20.3247 16.3204 20.3049 16.2624 20.2653C16.243 20.3445 16.2042 20.4418 16.1849 20.5193C16.1269 20.7156 15.9141 20.8129 15.7206 20.7354C15.4498 20.6364 15.4885 20.5985 15.295 20.422L15.0629 20.2456C14.9663 20.1483 14.8696 20.0312 15.0243 19.9339C15.0629 19.7376 15.1597 19.4441 14.9856 19.2874C14.9663 19.4639 14.8115 19.797 14.5987 19.7772C14.5213 19.7574 14.4054 19.6783 14.3472 19.6403L13.9798 19.3468L13.7476 19.2099L13.4962 19.0334L13.3027 18.9559L13.0706 18.8586C12.8964 18.7795 12.8964 18.7415 12.7803 18.6822L12.3935 18.5057L12.1614 18.3693L11.8906 18.2717L11.7358 18.213L11.5617 18.1348L11.3875 18.0567L11.2522 17.9589L10.7105 17.7244L10.2656 17.4506L9.85945 17.2161L9.62732 17.0988L9.49185 16.9814L9.04692 16.6687L8.83412 16.5319C8.7568 16.4537 8.62133 16.3168 8.54401 16.2387C8.25389 15.926 8.11841 15.7109 8.06042 15.2808C8.04109 15.2027 8.02176 15.144 8.02176 15.0658C8.04109 14.8704 8.04109 14.7922 8.11841 14.5966L8.1764 14.4403C8.19573 14.4012 8.23456 14.3817 8.27322 14.3426C8.46668 14.1276 8.7568 13.9907 9.04692 13.9711H9.47252L9.66598 14.0103L9.99476 14.0689C10.1109 14.108 10.1689 14.1471 10.2269 14.1667L10.4977 14.2449L11.0974 14.4012L11.465 14.5575C11.5037 14.5772 11.523 14.6162 11.581 14.6359L11.7165 14.6749L11.9486 14.7922L12.316 14.9485L12.4129 15.0072C12.5288 15.0658 12.6836 15.1245 12.761 15.2223C12.8771 15.2223 13.1092 15.3786 13.2059 15.4372L13.322 15.4959L13.6895 15.7304L13.8443 15.8086C13.9411 15.8478 13.9991 15.8869 14.0764 15.9651C14.2312 16.0627 14.3279 16.0627 14.4827 16.141L14.6761 16.2387L14.7728 16.3168L15.1597 16.5124L15.4305 16.6687L15.7593 16.8251L15.8948 16.9229L16.1462 17.0401L16.2817 17.0792L16.3977 17.1379L16.6298 17.2356L16.8813 17.3921C16.9781 17.4311 17.0361 17.4115 17.1134 17.5093C17.2296 17.5093 17.423 17.6069 17.5198 17.6657C17.6355 17.7244 17.8684 17.7829 18.0039 17.8025V17.8807H17.7908L17.2875 17.7244L17.1327 17.6462L16.7846 17.5288L16.6298 17.4506L16.4558 17.3921L16.1076 17.2356L15.8948 17.1574L15.4498 16.9423C15.3532 16.8838 15.1404 16.7469 15.0629 16.6687L14.9276 16.5319C14.8889 16.5124 14.7921 16.395 14.7341 16.4733C14.6761 16.5319 14.7535 16.6297 14.7921 16.6687L15.0049 16.8838C15.0629 16.9423 15.1597 17.0011 15.1984 17.0598C15.3339 17.0988 15.3532 17.177 15.4498 17.2552L15.8368 17.5093C15.9914 17.6266 16.0689 17.7634 16.301 17.7634C16.3397 17.8416 16.3977 17.8611 16.4752 17.8611C16.4945 17.9394 16.5332 17.9198 16.5912 17.9589C16.7073 18.037 16.746 18.0761 16.9006 18.0761C16.9201 18.1543 16.9588 18.1543 17.0361 18.1739L17.4617 18.3499L18.2154 18.5453L18.4682 18.5651L18.6796 18.6228L19.0679 18.7218C19.1637 18.7597 19.2216 18.8388 19.3967 18.8586V18.9164C19.4727 18.9361 19.4727 18.9361 19.5123 18.9955C19.59 19.0137 19.7255 19.1901 19.7436 19.2693C19.8213 19.4639 19.8411 19.6403 19.7635 19.8349C19.7255 19.952 19.7255 19.9718 19.628 20.051C19.3769 20.2653 19.2414 20.2851 18.9324 20.2456L18.7573 20.2258L18.3707 20.1285V20.2851C18.4863 20.3049 18.4863 20.3247 18.5838 20.3824L18.8548 20.4616C18.9324 20.4797 18.9704 20.5391 19.0481 20.5391C19.0861 20.5589 19.1257 20.5589 19.1637 20.5391C19.4347 20.5589 19.59 20.4616 19.7833 20.2851L19.8989 20.2076L19.9568 20.1087C20.0542 19.9718 20.0724 20.0114 20.1121 19.8151H20.2277V19.952C20.1897 20.0708 20.0542 20.2456 19.9766 20.3247C19.9188 20.3627 19.7436 20.4616 19.7436 20.5391C19.7436 20.6364 19.9766 20.6364 20.0344 20.6364C20.1897 20.6364 20.3632 20.6166 20.5185 20.5391C20.7316 20.4418 20.9828 20.1681 21.0786 19.9339L21.1562 19.543C21.1562 19.3468 21.0406 19.0532 20.9431 18.8966C20.8076 18.702 20.6143 18.6228 20.421 18.5255C20.0542 18.3303 20.1501 18.389 19.7833 18.2521L19.59 18.1739L19.1439 18.037C19.0283 18.0176 18.9506 18.037 18.8928 17.9198L19.6082 17.822C19.6858 17.7634 19.8411 17.7438 19.9568 17.7047C20.2079 17.5875 20.5185 17.3724 20.692 17.1574C20.7894 17.0598 20.8654 17.0401 20.8853 16.8838C20.9828 16.8447 21.0009 16.7665 21.0406 16.6687C21.1182 16.5515 21.2537 16.2387 21.2917 16.1018L21.3297 15.9845L21.4074 15.7304L21.4272 15.6131C21.4652 15.3395 21.4652 15.2418 21.4652 14.9682C21.4652 14.7922 21.447 14.8313 21.4272 14.6749C21.3495 14.0885 21.1364 13.7757 20.8274 13.3065C20.7118 13.1502 20.6143 13.0133 20.4987 12.8766L20.0542 12.3487L19.628 11.9187L18.9704 11.2736L18.564 10.9413L18.4285 10.824L18.1576 10.609L17.771 10.3158L17.423 10.0811L17.3069 10.0226L17.1909 9.90531L16.8813 9.70973L16.746 9.57301L16.1849 9.182L15.5853 8.67374L15.1017 8.30236L14.8889 8.12639L14.4633 7.81372L14.3279 7.75501L14.2119 7.63775L14.0764 7.53996L13.9023 7.364L13.322 6.8559L12.587 6.0935L12.3742 5.7612C12.2194 5.54616 12.0259 5.33111 12.0066 5.05752L11.9873 4.78376C12.0066 4.74468 12.0259 4.70559 12.0259 4.66651L12.0646 4.52963C12.1227 4.39291 12.3354 4.17787 12.4515 4.0997L12.761 3.96282H12.8964L12.9931 3.9432C13.0899 3.9432 13.0899 3.96282 13.2059 3.9432C13.2446 4.0019 13.38 4.02136 13.4573 4.06045L13.5735 4.13878C13.8056 4.25604 13.767 4.17787 14.0571 4.37329L14.1732 4.432L14.4827 4.74468L14.5793 4.88155L14.7148 5.01843C14.7728 5.07698 14.8308 5.19423 14.9083 5.23331L15.0822 5.64395L15.0049 6.03479V6.1913L15.0822 6.71902L15.1984 6.95353L15.3145 7.16858L15.3919 7.22728L15.5078 7.34454L15.7013 7.48142L16.0882 7.73555H16.1849C16.2236 7.83318 16.2817 7.77463 16.3397 7.8528L16.417 8.10693L16.4364 8.38052C16.4558 8.47832 16.5332 8.8497 16.5718 8.9475L16.6491 9.08421C16.746 9.2798 16.7846 9.39705 17.0168 9.43614C17.0554 9.35797 17.1134 9.26017 17.0747 9.16238C17.0747 9.1233 17.0168 9.06475 16.9781 8.96696L16.9201 8.65428C16.9006 8.53686 16.8233 8.38052 16.9588 8.30236C16.9588 8.5174 17.0747 8.63466 17.0361 8.86916L17.1909 9.14292L17.3649 9.37743H17.4423C17.4423 9.41651 17.4617 9.43614 17.481 9.47522C17.5003 9.53393 17.733 9.74881 17.771 9.7879C17.8866 9.84661 18.0039 9.82715 18.0419 9.67064C18.0617 9.51431 17.8866 9.29926 17.8106 9.16238C17.6157 8.86916 17.6157 8.83008 17.5397 8.49778C17.5198 8.43923 17.4617 8.24365 17.4617 8.1851C17.481 8.14602 17.481 8.08731 17.5198 8.08731C17.5777 8.06785 17.7511 8.20456 17.7908 8.24365C17.9461 8.40015 17.9461 8.45869 18.0617 8.59557L18.1972 8.73245C18.255 8.81062 18.293 8.88879 18.3905 8.90841L18.6218 9.22109L18.7193 9.26017C18.7391 9.31888 18.9506 9.51431 19.0084 9.55339C19.0481 9.57301 19.0679 9.57301 19.1059 9.57301C19.1257 9.65118 19.2034 9.69027 19.2612 9.74881L19.4925 10.0029C19.5702 10.0617 19.6676 10.1204 19.6858 10.218L19.8989 10.394L20.3054 10.6481L20.5565 10.824L20.8473 10.8826L21.0208 10.8435C21.0786 10.785 21.0984 10.8044 21.1562 10.7653L21.3297 10.5894C21.4652 10.4721 21.6007 10.394 21.718 10.2571C21.794 10.1789 21.8716 10.0029 21.8534 9.88569C21.8336 9.80752 21.7361 9.72935 21.6783 9.70973L21.5428 9.67064C21.2917 9.59247 21.0786 9.47522 20.8473 9.35797L20.0922 8.9475L19.5702 8.5174C19.4727 8.43923 19.4545 8.43923 19.357 8.34144L19.1257 8.04822L19.0283 7.95043C18.9704 7.87226 18.9126 7.77463 18.8746 7.69646C18.9126 7.69646 18.9324 7.69646 18.9704 7.71592L19.2612 7.89189C19.3967 7.98968 19.3967 8.04822 19.5702 8.06785C19.6082 8.1851 19.6478 8.16548 19.7255 8.22419L19.8213 8.32198C19.8989 8.38052 19.9188 8.38052 19.9766 8.41961L20.0724 8.5174L20.2079 8.6152L20.3632 8.75191L20.5185 8.86916C20.6341 8.92787 20.654 9.02567 20.7894 9.02567C20.8274 9.10384 20.8473 9.10384 20.9249 9.14292C21.0208 9.20163 21.1761 9.31888 21.2917 9.31888C21.3297 9.41651 21.3694 9.37743 21.447 9.4556C21.5428 9.53393 21.8716 9.70973 22.0071 9.74881H22.2202C22.3937 9.72935 22.3359 9.65118 22.4912 9.6121C22.5292 9.47522 22.6845 9.43614 22.7819 9.33834C22.8778 9.22109 22.8579 9.16238 22.9174 9.04513L23.1289 8.71283C23.1487 8.63466 23.1487 8.59557 23.1487 8.5174C23.1487 8.45869 23.1487 8.40015 23.1289 8.34144C23.0529 8.14602 22.8778 8.1851 22.7225 8.10693C22.6266 8.06785 22.6465 8.04822 22.511 8.00914L22.24 7.95043L21.8336 7.77463L21.5247 7.65721L21.1182 7.40325L20.8076 7.26637L20.1501 6.8559L20.0146 6.75811L19.8031 6.60177L19.4727 6.30855L19.3769 6.1913L19.0679 5.93717C18.9903 5.85883 18.9126 5.68303 18.7771 5.56562C18.6796 5.48745 18.5062 5.4289 18.3905 5.50707C18.3327 5.54616 18.3129 5.62432 18.2352 5.62432C18.1394 5.64395 17.9461 5.37019 17.9461 5.29202C17.9461 5.2724 17.9643 5.25294 17.9841 5.23331C18.0419 5.17477 18.1394 5.2724 18.1774 5.33111C18.3509 5.31165 18.4682 5.23331 18.4682 5.03789C18.4682 4.95972 18.4682 4.90101 18.4285 4.82284L18.1774 4.51017C18.1576 4.45146 18.1576 4.23641 18.0617 4.08007C17.9461 3.92374 17.8106 3.80648 17.6157 3.74777C17.5003 3.70869 17.3262 3.72815 17.2489 3.63052C17.1327 3.4741 17.1134 3.31771 17.0554 3.1418L16.9201 2.78994L16.7653 2.51626L16.6685 2.30125L16.4945 1.98848C16.4945 1.98848 16.3977 1.77346 16.3977 1.77346C16.3977 1.77346 16.243 1.53889 16.243 1.53889L16.1269 1.36296L16.0496 1.24567C15.9914 1.14793 15.9914 1.10884 15.8754 1.0502C15.6047 0.893812 15.3919 1.12839 15.3919 1.40206C15.3919 1.53889 15.5853 1.85165 15.682 1.98848C15.7206 2.08622 15.7788 2.20351 15.8175 2.32079L15.8368 2.47718L15.9721 2.71174C16.0496 2.90723 16.0109 2.92677 16.0689 3.08315C16.0689 3.12224 16.1076 3.18088 16.0882 3.23953C16.0496 3.29817 15.9528 3.23953 15.8948 3.20044L15.7593 3.1418L15.4498 2.98541L15.2564 2.92677L15.0243 2.78994C14.9469 2.75084 14.9469 2.78994 14.7921 2.71174C14.6375 2.61401 14.618 2.67265 14.4827 2.63355L14.1732 2.55537C13.6315 2.41854 13.1866 2.32079 12.6063 2.30125C12.4322 2.28169 12.2387 2.30125 12.0646 2.32079L11.7358 2.35989C11.639 2.34033 11.6197 2.18396 11.4843 2.04712C11.3295 1.91029 11.0974 1.81255 10.8846 1.793V1.793ZM15.4112 2.90723C15.4498 2.90723 15.5467 2.88767 15.5853 2.84858C15.6047 2.80948 15.5853 2.75084 15.566 2.71174C15.5078 2.61401 15.4305 2.47718 15.3532 2.39898L15.0436 2.02758C15.0436 2.02758 14.9469 1.89075 14.9469 1.89075C14.8501 1.79301 14.8308 1.79301 14.7341 1.71482C14.56 1.57799 14.6375 1.59753 14.4054 1.48024L14.2699 1.4216C14.1151 1.36296 13.9604 1.32386 13.8636 1.49979C13.8443 1.53889 13.8056 1.57799 13.8056 1.61707C13.8056 1.65617 13.8829 1.85164 13.9023 1.91029C13.9798 2.08622 14.0184 2.06667 14.1344 2.1644C14.1926 2.22305 14.1926 2.28169 14.2312 2.32079C14.3279 2.37943 14.4247 2.41854 14.5213 2.45762L14.618 2.51626L14.8115 2.59445L15.4112 2.90722V2.90723ZM21.3892 16.0823L21.4272 16.1996C21.4652 16.1801 21.5428 16.1605 21.5825 16.141C21.6601 16.0823 21.8138 15.8478 21.8716 15.7695L21.9889 15.6328L22.0649 15.4959L22.5292 14.7531L22.6646 14.5185L22.7819 14.4012L22.8398 14.284C22.9554 14.108 23.0711 13.9711 23.2264 13.8344L23.304 13.7562C23.3619 13.7171 23.4775 13.6584 23.5353 13.6194C23.575 13.5997 23.613 13.5803 23.6708 13.5606C23.8261 13.5216 24.0392 13.5803 24.1747 13.6584C24.2507 13.7171 24.2904 13.7757 24.3862 13.7953C24.406 13.9517 24.5217 13.932 24.5217 14.108C24.5811 14.1862 24.6191 14.3817 24.639 14.4794C24.677 14.4599 24.6968 14.4403 24.715 14.4012C24.7348 14.3621 24.7744 14.0298 24.7926 13.9517C24.7926 13.8735 24.8124 13.7757 24.8124 13.6975C24.7926 13.2871 24.5415 12.857 24.1929 12.6615C24.0392 12.5834 23.8641 12.5637 23.7105 12.5247C23.9038 12.3292 24.3102 12.4074 24.5035 12.5637C24.5993 12.6224 24.6571 12.6419 24.677 12.7592H24.7546C24.7546 12.8179 24.7744 12.896 24.8124 12.9547C24.8703 13.0133 24.9099 12.9351 24.9099 12.8766V12.7397C24.9281 12.5637 24.9099 12.4074 24.8504 12.2314C24.715 11.8601 24.3482 11.5472 23.9418 11.5472C23.8063 11.5472 23.7105 11.5472 23.575 11.5863C23.3619 11.6646 23.2066 11.7623 23.0529 11.9188C22.9753 11.9969 22.8199 12.212 22.7621 12.3096L22.5688 13.1111L22.5292 13.2674L22.4912 13.3847L22.4532 13.5606L22.3937 13.6975L22.3755 13.8539L22.3177 13.9907L22.24 14.2058L22.2004 14.4012L21.9691 15.0267L21.8336 15.3005L21.718 15.5546L21.5048 15.9064C21.447 15.9845 21.4652 16.0042 21.3892 16.0823V16.0823ZM1.59967 18.6426H1.77377C1.73508 18.5255 1.71573 18.5057 1.67705 18.4282C1.65771 18.3108 1.67705 18.1934 1.67705 18.0761V17.9394C1.73508 17.7635 1.90918 17.5288 2.06394 17.4312L2.23803 17.353L2.35409 17.2943C2.47015 17.2552 2.66357 17.2356 2.77972 17.2356C2.74106 17.3137 2.56689 17.4506 2.4895 17.5484C2.31541 17.7244 2.33474 17.7635 2.23803 17.9785C2.21868 18.0176 2.18 18.0567 2.18 18.0958L2.16066 18.389V18.5453C2.16066 18.6822 2.19933 18.7597 2.23803 18.8784L2.29607 19.0335C2.41213 19.2297 2.56689 19.4062 2.74106 19.5612C2.77972 19.6206 3.03118 19.8152 3.08917 19.8349C3.12783 19.8547 3.14716 19.8547 3.18582 19.8547C3.22464 19.9718 3.2633 19.9141 3.37929 19.8943L3.24397 19.6981C3.03118 19.3468 2.95369 18.9362 3.20531 18.5849C3.28263 18.4859 3.43744 18.3303 3.55342 18.3303C3.65007 18.2521 3.66957 18.2717 3.78555 18.2521C3.94036 18.213 3.86287 18.213 4.07567 18.213H4.44327L4.6754 18.2521C4.79138 18.2521 4.81088 18.2717 4.90753 18.2912C4.98485 18.3108 5.00418 18.2912 5.06234 18.2912L5.41044 18.389L5.52659 18.448L5.73939 18.4859L5.89403 18.5453C5.97152 18.5651 5.99085 18.5453 6.06817 18.6047L6.31963 18.6822L6.82254 18.8191L7.20948 18.9164L7.67373 19.0533L7.84787 19.0928L8.21531 19.1901H8.58291C8.69906 19.0533 8.71839 18.9757 8.52492 18.8966L8.13799 18.8191L7.57708 18.6228L7.30613 18.4678L7.13216 18.4282L6.86137 18.3108L6.53242 18.1349L6.33896 18.0371L5.83604 17.7438L5.39111 17.5093L4.94619 17.2161L4.4626 16.9229L3.6889 16.395C3.37929 16.2387 2.91503 16.1605 2.56689 16.1605C2.06394 16.1605 1.59967 16.3756 1.29017 16.7666C1.23213 16.8251 1.15475 16.9424 1.11606 17.0207C1.11607 17.0207 1.07738 17.1574 1.07738 17.1574C1.05803 17.2356 1.01935 17.3137 1 17.3921C1 17.3921 1 17.607 1 17.607C1.01935 17.7244 1.13541 18.0761 1.21278 18.1739L1.59967 18.6426H1.59967Z" fill="white" stroke="white" stroke-width="0.0256319"/>
<path d="M37.7267 24.464C36.8081 24.464 35.9847 24.308 35.2567 23.996C34.5461 23.684 33.9741 23.2247 33.5407 22.618C33.1247 22.0113 32.9167 21.2747 32.9167 20.408C32.9167 19.524 33.1247 18.796 33.5407 18.224C33.9741 17.6347 34.5547 17.1927 35.2827 16.898C36.0281 16.6033 36.8687 16.456 37.8047 16.456H41.7047V15.624C41.7047 14.8787 41.4794 14.2807 41.0287 13.83C40.5781 13.3793 39.8847 13.154 38.9487 13.154C38.0301 13.154 37.3281 13.3707 36.8427 13.804C36.3574 14.2373 36.0367 14.8007 35.8807 15.494L33.3847 14.688C33.5927 13.9947 33.9221 13.3707 34.3727 12.816C34.8407 12.244 35.4561 11.7847 36.2187 11.438C36.9814 11.0913 37.9001 10.918 38.9747 10.918C40.6387 10.918 41.9474 11.3427 42.9007 12.192C43.8541 13.0413 44.3307 14.246 44.3307 15.806V21.084C44.3307 21.604 44.5734 21.864 45.0587 21.864H46.1507V24.1H44.1487C43.5421 24.1 43.0481 23.944 42.6667 23.632C42.2854 23.32 42.0947 22.8953 42.0947 22.358V22.28H41.7047C41.5661 22.54 41.3581 22.8433 41.0807 23.19C40.8034 23.5367 40.3961 23.84 39.8587 24.1C39.3214 24.3427 38.6107 24.464 37.7267 24.464ZM38.1167 22.254C39.1914 22.254 40.0581 21.9507 40.7167 21.344C41.3754 20.72 41.7047 19.8707 41.7047 18.796V18.536H37.9607C37.2501 18.536 36.6781 18.692 36.2447 19.004C35.8114 19.2987 35.5947 19.7407 35.5947 20.33C35.5947 20.9193 35.8201 21.3873 36.2707 21.734C36.7214 22.0807 37.3367 22.254 38.1167 22.254Z" fill="white"/>
<path d="M54.8646 24.464C53.4953 24.464 52.2819 24.2213 51.2246 23.736C50.1673 23.2507 49.3353 22.54 48.7286 21.604C48.1393 20.6507 47.8446 19.498 47.8446 18.146V17.496H50.6266V18.146C50.6266 19.4287 51.0079 20.3907 51.7706 21.032C52.5506 21.6733 53.5819 21.994 54.8646 21.994C56.1646 21.994 57.1439 21.7253 57.8026 21.188C58.4613 20.6333 58.7906 19.9227 58.7906 19.056C58.7906 18.484 58.6346 18.016 58.3226 17.652C58.0106 17.288 57.5686 17.002 56.9966 16.794C56.4246 16.5687 55.7399 16.3607 54.9426 16.17L53.9806 15.936C52.8193 15.6587 51.8053 15.3207 50.9386 14.922C50.0893 14.506 49.4306 13.96 48.9626 13.284C48.4946 12.608 48.2606 11.7413 48.2606 10.684C48.2606 9.60934 48.5206 8.69068 49.0406 7.92801C49.5779 7.16534 50.3146 6.57601 51.2506 6.16001C52.1866 5.74401 53.2873 5.53601 54.5526 5.53601C55.8179 5.53601 56.9446 5.75268 57.9326 6.18601C58.9379 6.61934 59.7266 7.26068 60.2986 8.11001C60.8706 8.95934 61.1566 10.0253 61.1566 11.308V12.244H58.3746V11.308C58.3746 10.528 58.2099 9.89535 57.8806 9.41001C57.5686 8.92468 57.1266 8.56934 56.5546 8.34401C55.9826 8.11868 55.3153 8.00601 54.5526 8.00601C53.4433 8.00601 52.5766 8.24001 51.9526 8.70801C51.3459 9.15868 51.0426 9.79134 51.0426 10.606C51.0426 11.1607 51.1726 11.62 51.4326 11.984C51.7099 12.3307 52.1086 12.6167 52.6286 12.842C53.1486 13.0673 53.7986 13.2667 54.5786 13.44L55.5406 13.674C56.7193 13.934 57.7593 14.272 58.6606 14.688C59.5619 15.0867 60.2726 15.6327 60.7926 16.326C61.3126 17.0193 61.5726 17.912 61.5726 19.004C61.5726 20.096 61.2953 21.0493 60.7406 21.864C60.2033 22.6787 59.4319 23.32 58.4266 23.788C57.4213 24.2387 56.2339 24.464 54.8646 24.464Z" fill="white"/>
<path d="M71.3584 24.464C69.1224 24.464 67.3457 23.84 66.0284 22.592C64.711 21.3267 64.0524 19.5067 64.0524 17.132V12.868C64.0524 10.4933 64.711 8.68201 66.0284 7.43401C67.3457 6.16868 69.1224 5.53601 71.3584 5.53601C73.5944 5.53601 75.371 6.16868 76.6884 7.43401C78.023 8.68201 78.6904 10.4933 78.6904 12.868V17.132C78.6904 19.5067 78.023 21.3267 76.6884 22.592C75.371 23.84 73.5944 24.464 71.3584 24.464ZM71.3584 21.942C72.797 21.942 73.9064 21.526 74.6864 20.694C75.4664 19.8447 75.8564 18.692 75.8564 17.236V12.764C75.8564 11.308 75.4664 10.164 74.6864 9.33201C73.9064 8.48268 72.797 8.05801 71.3584 8.05801C69.9544 8.05801 68.8537 8.48268 68.0564 9.33201C67.259 10.164 66.8604 11.308 66.8604 12.764V17.236C66.8604 18.692 67.259 19.8447 68.0564 20.694C68.8537 21.526 69.9544 21.942 71.3584 21.942Z" fill="white"/>
<path d="M82.0145 24.1V5.90001H84.8225V21.552H93.5845V24.1H82.0145Z" fill="white"/>
</svg>
