<svg width="144" height="28" viewBox="0 0 144 28" fill="none" xmlns="http://www.w3.org/2000/svg">
<path d="M7.96 22.308C6.42933 22.308 5.07599 21.9627 3.9 21.272C2.72399 20.5813 1.80933 19.62 1.156 18.388C0.502662 17.1373 0.175995 15.7093 0.175995 14.104C0.175995 12.5547 0.502662 11.1733 1.156 9.95999C1.80933 8.72799 2.72399 7.77599 3.9 7.10399C5.07599 6.41332 6.42933 6.06799 7.96 6.06799C9.808 6.06799 11.3667 6.53465 12.636 7.46799C13.924 8.40132 14.7547 9.67066 15.128 11.276H11.544C11.2827 10.492 10.8347 9.88532 10.2 9.45599C9.584 9.02665 8.83733 8.81199 7.96 8.81199C7.10133 8.81199 6.336 9.03599 5.66399 9.48399C4.99199 9.91332 4.46933 10.5293 4.096 11.332C3.72266 12.1347 3.53599 13.0587 3.53599 14.104C3.53599 15.1867 3.72266 16.1387 4.096 16.96C4.46933 17.7813 4.99199 18.416 5.66399 18.864C6.336 19.312 7.10133 19.536 7.96 19.536C8.912 19.536 9.70533 19.2933 10.34 18.808C10.9933 18.3227 11.4227 17.66 11.628 16.82H15.212C14.8573 18.5373 14.0267 19.8813 12.72 20.852C11.4133 21.8227 9.82666 22.308 7.96 22.308Z" fill="white"/>
<path d="M21.9112 22.308C20.3805 22.308 19.1485 21.9067 18.2152 21.104C17.2819 20.3013 16.8152 19.1813 16.8152 17.744C16.8152 16.288 17.3845 15.14 18.5232 14.3C19.3445 13.7027 20.5579 13.2453 22.1632 12.928L27.1192 12.004C27.1005 10.9587 26.8205 10.156 26.2792 9.59599C25.7005 9.01732 24.9165 8.72799 23.9272 8.72799C23.1245 8.72799 22.4245 8.96132 21.8272 9.42799C21.2299 9.87599 20.8565 10.492 20.7072 11.276H17.4032C17.6645 9.59599 18.4112 8.30799 19.6432 7.41199C20.8939 6.51599 22.3312 6.06799 23.9552 6.06799C24.8885 6.06799 25.7565 6.19866 26.5592 6.45999C27.3805 6.72132 28.0805 7.11332 28.6592 7.63599C29.4245 8.34532 29.9005 9.17599 30.0872 10.128C30.2925 11.08 30.3952 12.2093 30.3952 13.516V22H27.0912V19.76C26.6805 20.4693 26.1579 21.0293 25.5232 21.44C24.6459 22.0187 23.4419 22.308 21.9112 22.308ZM22.6392 19.62C23.4045 19.62 24.1232 19.4613 24.7952 19.144C25.6725 18.696 26.2792 18.108 26.6152 17.38C26.9699 16.652 27.1472 15.6907 27.1472 14.496L22.9752 15.308C21.8925 15.532 21.1272 15.8493 20.6792 16.26C20.3059 16.6333 20.1192 17.1 20.1192 17.66C20.1192 18.276 20.3432 18.7613 20.7912 19.116C21.2579 19.452 21.8739 19.62 22.6392 19.62Z" fill="white"/>
<path d="M39.8855 22.308C37.9441 22.308 36.2921 21.8413 34.9295 20.908C33.5855 19.9747 32.7828 18.612 32.5215 16.82H35.8535C36.0775 17.716 36.5348 18.4067 37.2255 18.892C37.9161 19.3773 38.8028 19.62 39.8855 19.62C40.8001 19.62 41.5281 19.452 42.0695 19.116C42.6295 18.7613 42.9095 18.2667 42.9095 17.632C42.9095 17.128 42.7321 16.7267 42.3775 16.428C42.0415 16.1293 41.6121 15.9053 41.0895 15.756C40.5855 15.588 39.8855 15.4107 38.9895 15.224C37.7575 14.9813 36.7495 14.7293 35.9655 14.468C35.2001 14.2067 34.5375 13.7773 33.9775 13.18C33.4361 12.564 33.1655 11.724 33.1655 10.66C33.1655 9.16666 33.7255 8.02799 34.8455 7.24399C35.9655 6.45999 37.3841 6.06799 39.1015 6.06799C40.8935 6.06799 42.3868 6.52532 43.5815 7.43999C44.7761 8.35465 45.5135 9.62399 45.7935 11.248H42.6855C42.4615 10.408 42.0321 9.78266 41.3975 9.37199C40.7628 8.94265 39.9975 8.72799 39.1015 8.72799C38.2615 8.72799 37.5988 8.88665 37.1135 9.20399C36.6281 9.52132 36.3855 9.95065 36.3855 10.492C36.3855 10.94 36.5441 11.304 36.8615 11.584C37.1975 11.8453 37.6081 12.0507 38.0935 12.2C38.5975 12.3307 39.2881 12.48 40.1655 12.648C41.4161 12.872 42.4428 13.124 43.2455 13.404C44.0481 13.684 44.7388 14.1413 45.3175 14.776C45.8961 15.392 46.1855 16.2507 46.1855 17.352C46.1855 18.864 45.6255 20.068 44.5055 20.964C43.3855 21.86 41.8455 22.308 39.8855 22.308Z" fill="white"/>
<path d="M48.6869 22V0.635988H51.9909V8.47599C52.6442 7.57999 53.3162 6.95466 54.0069 6.59999C54.7162 6.24532 55.5095 6.06799 56.3869 6.06799C58.7202 6.06799 60.3162 6.91732 61.1749 8.61599C61.4735 9.23199 61.6602 9.85732 61.7349 10.492C61.8095 11.1267 61.8469 11.9107 61.8469 12.844V22H58.5429V12.844C58.5429 11.276 58.2722 10.1933 57.7309 9.59599C57.2829 9.09199 56.5735 8.83999 55.6029 8.83999C54.4829 8.83999 53.6429 9.17599 53.0829 9.84799C52.7095 10.2773 52.4295 10.856 52.2429 11.584C52.0749 12.2933 51.9909 13.2547 51.9909 14.468V22H48.6869Z" fill="white"/>
<path d="M68.1106 22H64.8066V6.34799H68.1106V22ZM66.4586 4.33199C65.8612 4.33199 65.3479 4.14532 64.9186 3.77199C64.5079 3.37999 64.3026 2.89465 64.3026 2.31599C64.3026 1.73732 64.5079 1.26132 64.9186 0.887989C65.3479 0.495988 65.8612 0.299988 66.4586 0.299988C67.0746 0.299988 67.5879 0.495988 67.9986 0.887989C68.4092 1.26132 68.6146 1.73732 68.6146 2.31599C68.6146 2.89465 68.4092 3.37999 67.9986 3.77199C67.5879 4.14532 67.0746 4.33199 66.4586 4.33199Z" fill="white"/>
<path d="M78.3885 22.308C76.8579 22.308 75.4952 21.9627 74.3005 21.272C73.1059 20.5813 72.1725 19.62 71.5005 18.388C70.8472 17.1373 70.5205 15.7093 70.5205 14.104C70.5205 12.5547 70.8472 11.1733 71.5005 9.95999C72.1725 8.72799 73.1059 7.77599 74.3005 7.10399C75.4952 6.41332 76.8579 6.06799 78.3885 6.06799C79.9192 6.06799 81.2819 6.41332 82.4765 7.10399C83.6712 7.77599 84.6045 8.72799 85.2765 9.95999C85.9485 11.1733 86.2845 12.5547 86.2845 14.104C86.2845 15.6907 85.9485 17.1093 85.2765 18.36C84.6232 19.592 83.6992 20.5627 82.5045 21.272C81.3099 21.9627 79.9379 22.308 78.3885 22.308ZM78.3885 19.424C79.2472 19.424 80.0219 19.2 80.7125 18.752C81.4032 18.2853 81.9352 17.6507 82.3085 16.848C82.7005 16.0453 82.8965 15.1307 82.8965 14.104C82.8965 13.1333 82.7005 12.256 82.3085 11.472C81.9352 10.6693 81.4032 10.044 80.7125 9.59599C80.0219 9.14799 79.2472 8.92399 78.3885 8.92399C77.5299 8.92399 76.7552 9.14799 76.0645 9.59599C75.3739 10.0253 74.8325 10.6413 74.4405 11.444C74.0672 12.228 73.8805 13.1147 73.8805 14.104C73.8805 15.1493 74.0765 16.0733 74.4685 16.876C74.8605 17.6787 75.3925 18.304 76.0645 18.752C76.7552 19.2 77.5299 19.424 78.3885 19.424Z" fill="white"/>
<path d="M90.3574 22.308C89.7788 22.308 89.2841 22.112 88.8734 21.72C88.4628 21.3093 88.2574 20.8147 88.2574 20.236C88.2574 19.676 88.4628 19.2 88.8734 18.808C89.2841 18.416 89.7788 18.22 90.3574 18.22C90.8988 18.22 91.3654 18.4253 91.7574 18.836C92.1494 19.228 92.3454 19.6947 92.3454 20.236C92.3454 20.796 92.1494 21.2813 91.7574 21.692C91.3654 22.1027 90.8988 22.308 90.3574 22.308Z" fill="white"/>
<path d="M99.4067 22.308C97.876 22.308 96.644 21.9067 95.7107 21.104C94.7774 20.3013 94.3107 19.1813 94.3107 17.744C94.3107 16.288 94.88 15.14 96.0187 14.3C96.84 13.7027 98.0534 13.2453 99.6587 12.928L104.615 12.004C104.596 10.9587 104.316 10.156 103.775 9.59599C103.196 9.01732 102.412 8.72799 101.423 8.72799C100.62 8.72799 99.92 8.96132 99.3227 9.42799C98.7254 9.87599 98.352 10.492 98.2027 11.276H94.8987C95.16 9.59599 95.9067 8.30799 97.1387 7.41199C98.3894 6.51599 99.8267 6.06799 101.451 6.06799C102.384 6.06799 103.252 6.19866 104.055 6.45999C104.876 6.72132 105.576 7.11332 106.155 7.63599C106.92 8.34532 107.396 9.17599 107.583 10.128C107.788 11.08 107.891 12.2093 107.891 13.516V22H104.587V19.76C104.176 20.4693 103.653 21.0293 103.019 21.44C102.141 22.0187 100.937 22.308 99.4067 22.308ZM100.135 19.62C100.9 19.62 101.619 19.4613 102.291 19.144C103.168 18.696 103.775 18.108 104.111 17.38C104.465 16.652 104.643 15.6907 104.643 14.496L100.471 15.308C99.388 15.532 98.6227 15.8493 98.1747 16.26C97.8013 16.6333 97.6147 17.1 97.6147 17.66C97.6147 18.276 97.8387 18.7613 98.2867 19.116C98.7533 19.452 99.3693 19.62 100.135 19.62Z" fill="white"/>
<path d="M118.781 6.03999C120.144 6.03999 121.338 6.38532 122.365 7.07599C123.41 7.74799 124.222 8.69999 124.801 9.93199C125.38 11.164 125.669 12.5733 125.669 14.16C125.669 15.7467 125.38 17.156 124.801 18.388C124.222 19.62 123.41 20.5813 122.365 21.272C121.338 21.944 120.144 22.28 118.781 22.28C117.792 22.28 116.933 22.1027 116.205 21.748C115.477 21.3933 114.777 20.768 114.105 19.872V27.712H110.801V6.34799H114.105V8.47599C114.777 7.57999 115.468 6.95466 116.177 6.59999C116.905 6.22665 117.773 6.03999 118.781 6.03999ZM118.109 8.89599C117.269 8.89599 116.522 9.11999 115.869 9.56799C115.216 10.016 114.702 10.6413 114.329 11.444C113.956 12.2467 113.769 13.152 113.769 14.16C113.769 15.168 113.956 16.0733 114.329 16.876C114.702 17.6787 115.216 18.304 115.869 18.752C116.522 19.2 117.269 19.424 118.109 19.424C119.397 19.424 120.424 18.9293 121.189 17.94C121.954 16.9507 122.337 15.6907 122.337 14.16C122.337 12.6293 121.954 11.3693 121.189 10.38C120.424 9.39065 119.397 8.89599 118.109 8.89599Z" fill="white"/>
<path d="M136.131 6.03999C137.494 6.03999 138.688 6.38532 139.715 7.07599C140.76 7.74799 141.572 8.69999 142.151 9.93199C142.73 11.164 143.019 12.5733 143.019 14.16C143.019 15.7467 142.73 17.156 142.151 18.388C141.572 19.62 140.76 20.5813 139.715 21.272C138.688 21.944 137.494 22.28 136.131 22.28C135.142 22.28 134.283 22.1027 133.555 21.748C132.827 21.3933 132.127 20.768 131.455 19.872V27.712H128.151V6.34799H131.455V8.47599C132.127 7.57999 132.818 6.95466 133.527 6.59999C134.255 6.22665 135.123 6.03999 136.131 6.03999ZM135.459 8.89599C134.619 8.89599 133.872 9.11999 133.219 9.56799C132.566 10.016 132.052 10.6413 131.679 11.444C131.306 12.2467 131.119 13.152 131.119 14.16C131.119 15.168 131.306 16.0733 131.679 16.876C132.052 17.6787 132.566 18.304 133.219 18.752C133.872 19.2 134.619 19.424 135.459 19.424C136.747 19.424 137.774 18.9293 138.539 17.94C139.304 16.9507 139.687 15.6907 139.687 14.16C139.687 12.6293 139.304 11.3693 138.539 10.38C137.774 9.39065 136.747 8.89599 135.459 8.89599Z" fill="white"/>
</svg>
