<svg width="176" height="48" viewBox="0 0 176 48" fill="none" xmlns="http://www.w3.org/2000/svg">
<g clip-path="url(#clip0_204_43)">
<path d="M33.3333 0V13.3333H13.3333V33.3333H0L0 0L33.3333 0Z" fill="white"/>
<path d="M48.0002 13.3336V48.0002H13.3336V33.3336H33.3335V13.3336H48.0002Z" fill="white"/>
</g>
<path d="M79.7742 6C82.5806 6 85.0323 6.53226 87.129 7.59677C89.2581 8.66129 90.9194 10.1613 92.1129 12.0968C93.3064 14.0323 93.9516 16.2419 94.0484 18.7258H86.8871C86.6613 16.7258 85.9194 15.1613 84.6613 14.0323C83.4032 12.871 81.7742 12.2903 79.7742 12.2903C77.1613 12.2903 75.0968 13.3387 73.5806 15.4355C72.0968 17.5 71.3548 20.3548 71.3548 24C71.3548 27.6452 72.0806 30.5161 73.5323 32.6129C75.0161 34.6774 77.0484 35.7097 79.629 35.7097C81.6613 35.7097 83.3064 35.1452 84.5645 34.0161C85.8548 32.8548 86.629 31.2258 86.8871 29.129H94.1935C93.871 33.1935 92.4194 36.3548 89.8387 38.6129C87.2581 40.871 83.8548 42 79.629 42C76.4355 42 73.6613 41.2742 71.3064 39.8226C68.9516 38.371 67.1452 36.3065 65.8871 33.629C64.629 30.9194 64 27.7097 64 24C64 20.3226 64.629 17.129 65.8871 14.4194C67.1774 11.7097 69 9.62903 71.3548 8.17742C73.7419 6.72581 76.5484 6 79.7742 6Z" fill="white"/>
<path d="M110.557 16.2581C111.363 16.2581 112.105 16.3548 112.783 16.5484V22.4032C111.912 22.2419 111.202 22.1613 110.653 22.1613C108.589 22.1613 107.008 22.8065 105.912 24.0968C104.815 25.3548 104.266 27.1935 104.266 29.6129V41.2258H97.4922V16.6452H103.734V20.129H103.831C104.637 18.8065 105.589 17.8387 106.686 17.2258C107.815 16.5806 109.105 16.2581 110.557 16.2581Z" fill="white"/>
<path d="M123.284 15.871C126.768 15.871 129.397 16.6935 131.171 18.3387C132.945 19.9516 133.832 22.371 133.832 25.5968V34.5C133.832 37.2742 134.058 39.5161 134.509 41.2258H128.413C128.187 40.2903 128.074 39.1936 128.074 37.9355H127.977C126.171 40.5161 123.509 41.8065 119.993 41.8065C117.445 41.8065 115.413 41.1129 113.897 39.7258C112.38 38.3065 111.622 36.5161 111.622 34.3548C111.622 32.2581 112.348 30.5645 113.8 29.2742C115.284 27.9839 117.735 27.0645 121.155 26.5161C123.219 26.1935 125.268 25.9677 127.3 25.8387V24.9677C127.3 23.4839 126.945 22.3871 126.235 21.6774C125.526 20.9677 124.542 20.6129 123.284 20.6129C122.026 20.6129 121.042 20.9516 120.332 21.629C119.655 22.2742 119.284 23.1774 119.219 24.3387H112.638C112.768 21.8548 113.735 19.8226 115.542 18.2419C117.348 16.6613 119.929 15.871 123.284 15.871ZM127.3 29.9516C125.364 30.0806 123.719 30.2581 122.364 30.4839C120.945 30.7419 119.929 31.129 119.316 31.6452C118.703 32.1613 118.397 32.9032 118.397 33.871C118.397 34.8065 118.703 35.5645 119.316 36.1452C119.961 36.6935 120.864 36.9677 122.026 36.9677C122.768 36.9677 123.477 36.8548 124.155 36.629C124.864 36.371 125.445 36.0161 125.897 35.5645C126.445 35.0161 126.816 34.4032 127.009 33.7258C127.203 33.0161 127.3 32.0645 127.3 30.871V29.9516Z" fill="white"/>
<path d="M148.741 36.1452C149.418 36.1452 149.999 36.0645 150.482 35.9032V41.0806C149.45 41.4032 148.257 41.5645 146.902 41.5645C144.063 41.5645 141.999 40.9516 140.708 39.7258C139.418 38.4677 138.773 36.4194 138.773 33.5806V21.6774H134.805V16.6452H138.773V10.2581H145.547V16.6452H150.241V21.6774H145.547V32.371C145.547 33.7258 145.789 34.6936 146.273 35.2742C146.757 35.8548 147.579 36.1452 148.741 36.1452Z" fill="white"/>
<path d="M163.051 37.2097C164.374 37.2097 165.47 36.9032 166.341 36.2903C167.212 35.6452 167.728 34.8065 167.89 33.7742H174.809C174.487 35.2903 173.793 36.6774 172.728 37.9355C171.696 39.1936 170.341 40.1936 168.664 40.9355C167.019 41.6452 165.148 42 163.051 42C160.503 42 158.309 41.4516 156.47 40.3548C154.632 39.2258 153.228 37.6613 152.261 35.6613C151.293 33.6613 150.809 31.3548 150.809 28.7419C150.809 26.2903 151.293 24.0968 152.261 22.1613C153.228 20.2258 154.632 18.6935 156.47 17.5645C158.309 16.4355 160.487 15.871 163.003 15.871C165.809 15.871 168.212 16.6129 170.212 18.0968C172.212 19.5484 173.599 21.5323 174.374 24.0484C174.89 25.6935 175.148 27.7903 175.148 30.3387H157.487C157.583 32.7258 158.132 34.4677 159.132 35.5645C160.164 36.6613 161.47 37.2097 163.051 37.2097ZM163.003 20.6613C161.583 20.6613 160.39 21.1129 159.422 22.0161C158.487 22.9194 157.89 24.2742 157.632 26.0806H168.374C168.18 24.3065 167.583 22.9677 166.583 22.0645C165.616 21.129 164.422 20.6613 163.003 20.6613Z" fill="white"/>
<defs>
<clipPath id="clip0_204_43">
<rect width="48" height="48" fill="white"/>
</clipPath>
</defs>
</svg>
