<svg width="88" height="14" viewBox="0 0 88 14" fill="none" xmlns="http://www.w3.org/2000/svg">
<path d="M8 0L16 14H0L8 0Z" fill="white"/>
<path d="M24 2.99204H26.604C27.692 2.99204 28.5 3.35204 29.028 4.07204C29.564 4.79204 29.832 5.82804 29.832 7.18004C29.832 8.54004 29.564 9.58004 29.028 10.3C28.5 11.012 27.692 11.368 26.604 11.368H24V2.99204ZM26.496 10.108C27.072 10.108 27.496 9.92004 27.768 9.54404C28.048 9.16804 28.188 8.62004 28.188 7.90004V6.44804C28.188 5.73604 28.048 5.19204 27.768 4.81604C27.496 4.44004 27.072 4.25204 26.496 4.25204H25.548V10.108H26.496Z" fill="white"/>
<path d="M34.0633 11.512C33.5673 11.512 33.1273 11.436 32.7433 11.284C32.3593 11.132 32.0353 10.916 31.7713 10.636C31.5153 10.356 31.3193 10.02 31.1833 9.62804C31.0473 9.22804 30.9793 8.78004 30.9793 8.28404C30.9793 7.78004 31.0473 7.32804 31.1833 6.92804C31.3273 6.52804 31.5273 6.18804 31.7833 5.90804C32.0393 5.62804 32.3473 5.41204 32.7073 5.26004C33.0753 5.10804 33.4873 5.03204 33.9433 5.03204C34.3913 5.03204 34.7953 5.10804 35.1553 5.26004C35.5153 5.40404 35.8193 5.61204 36.0673 5.88404C36.3233 6.15604 36.5193 6.48404 36.6553 6.86804C36.7913 7.25204 36.8593 7.67604 36.8593 8.14004V8.64404H32.5153V8.80004C32.5153 9.24804 32.6553 9.61204 32.9353 9.89204C33.2153 10.164 33.6073 10.3 34.1113 10.3C34.4953 10.3 34.8233 10.224 35.0953 10.072C35.3753 9.91204 35.6073 9.70404 35.7913 9.44804L36.6673 10.324C36.4433 10.652 36.1153 10.932 35.6833 11.164C35.2593 11.396 34.7193 11.512 34.0633 11.512ZM33.9553 6.16004C33.5233 6.16004 33.1753 6.29604 32.9113 6.56804C32.6473 6.84004 32.5153 7.20004 32.5153 7.64804V7.73204H35.3233V7.62404C35.3233 7.17604 35.1993 6.82004 34.9513 6.55604C34.7113 6.29204 34.3793 6.16004 33.9553 6.16004Z" fill="white"/>
<path d="M38.3786 10.156H40.3466V3.70004H38.3786V2.48804H41.8826V10.156H43.8626V11.368H38.3786V10.156Z" fill="white"/>
<path d="M48.7299 11.368C48.1379 11.368 47.7019 11.212 47.4219 10.9C47.1419 10.588 47.0019 10.184 47.0019 9.68804V6.38804H45.2019V5.17604H46.4259C46.6739 5.17604 46.8499 5.12804 46.9539 5.03204C47.0579 4.92804 47.1099 4.74804 47.1099 4.49204V2.99204H48.5379V5.17604H51.0579V6.38804H48.5379V10.156H51.0579V11.368H48.7299Z" fill="white"/>
<path d="M57.7853 11.368C57.4093 11.368 57.1172 11.276 56.9092 11.092C56.7092 10.9 56.5893 10.636 56.5493 10.3H56.4893C56.3773 10.684 56.1573 10.984 55.8293 11.2C55.5013 11.408 55.0973 11.512 54.6173 11.512C53.9933 11.512 53.4972 11.348 53.1292 11.02C52.7612 10.692 52.5772 10.236 52.5772 9.65204C52.5772 8.40404 53.4933 7.78004 55.3253 7.78004H56.4173V7.37204C56.4173 6.98004 56.3212 6.68404 56.1292 6.48404C55.9372 6.28404 55.6253 6.18404 55.1933 6.18404C54.8013 6.18404 54.4853 6.26004 54.2453 6.41204C54.0053 6.56404 53.8012 6.76004 53.6332 7.00004L52.7572 6.25604C52.9492 5.91204 53.2572 5.62404 53.6812 5.39204C54.1132 5.15204 54.6693 5.03204 55.3493 5.03204C56.1653 5.03204 56.8013 5.22404 57.2573 5.60804C57.7213 5.98404 57.9533 6.54804 57.9533 7.30004V10.216H58.6852V11.368H57.7853ZM55.1332 10.456C55.5012 10.456 55.8052 10.372 56.0452 10.204C56.2932 10.028 56.4173 9.79204 56.4173 9.49604V8.66804H55.3612C54.5212 8.66804 54.1012 8.93204 54.1012 9.46004V9.70004C54.1012 9.94804 54.1933 10.136 54.3773 10.264C54.5613 10.392 54.8132 10.456 55.1332 10.456Z" fill="white"/>
<path d="M69.8959 11.512C69.3519 11.512 68.8799 11.416 68.4799 11.224C68.0799 11.024 67.7479 10.74 67.4839 10.372C67.2279 10.004 67.0359 9.55204 66.9079 9.01604C66.7879 8.48004 66.7279 7.86804 66.7279 7.18004C66.7279 6.50004 66.7879 5.89204 66.9079 5.35604C67.0359 4.81204 67.2279 4.35604 67.4839 3.98804C67.7479 3.62004 68.0799 3.34004 68.4799 3.14804C68.8799 2.94804 69.3519 2.84804 69.8959 2.84804C70.9839 2.84804 71.7839 3.22804 72.2959 3.98804C72.8079 4.74804 73.0639 5.81204 73.0639 7.18004C73.0639 8.54804 72.8079 9.61204 72.2959 10.372C71.7839 11.132 70.9839 11.512 69.8959 11.512ZM69.8959 10.228C70.1759 10.228 70.4119 10.176 70.6039 10.072C70.7959 9.96004 70.9479 9.80404 71.0599 9.60404C71.1799 9.40404 71.2639 9.16004 71.3119 8.87204C71.3679 8.57604 71.3959 8.24804 71.3959 7.88804V6.46004C71.3959 5.74004 71.2839 5.17204 71.0599 4.75604C70.8439 4.34004 70.4559 4.13204 69.8959 4.13204C69.3359 4.13204 68.9439 4.34004 68.7199 4.75604C68.5039 5.17204 68.3959 5.74004 68.3959 6.46004V7.90004C68.3959 8.62004 68.5039 9.18804 68.7199 9.60404C68.9439 10.02 69.3359 10.228 69.8959 10.228Z" fill="white"/>
<path d="M74.3912 11.368V5.17604H75.9272V6.26804H75.9872C76.1232 5.93204 76.3312 5.64404 76.6112 5.40404C76.8992 5.15604 77.2952 5.03204 77.7992 5.03204C78.4072 5.03204 78.8992 5.23604 79.2752 5.64404C79.6592 6.04404 79.8512 6.62004 79.8512 7.37204V11.368H78.3152V7.58804C78.3152 6.69204 77.9272 6.24404 77.1512 6.24404C76.9912 6.24404 76.8392 6.26404 76.6952 6.30404C76.5512 6.34404 76.4192 6.40804 76.2992 6.49604C76.1872 6.57604 76.0952 6.67604 76.0232 6.79604C75.9592 6.91604 75.9272 7.06004 75.9272 7.22804V11.368H74.3912Z" fill="white"/>
<path d="M84.4305 11.512C83.9345 11.512 83.4945 11.436 83.1105 11.284C82.7265 11.132 82.4025 10.916 82.1385 10.636C81.8825 10.356 81.6865 10.02 81.5505 9.62804C81.4145 9.22804 81.3465 8.78004 81.3465 8.28404C81.3465 7.78004 81.4145 7.32804 81.5505 6.92804C81.6945 6.52804 81.8945 6.18804 82.1505 5.90804C82.4065 5.62804 82.7145 5.41204 83.0745 5.26004C83.4425 5.10804 83.8545 5.03204 84.3105 5.03204C84.7585 5.03204 85.1625 5.10804 85.5225 5.26004C85.8825 5.40404 86.1865 5.61204 86.4345 5.88404C86.6905 6.15604 86.8865 6.48404 87.0225 6.86804C87.1585 7.25204 87.2265 7.67604 87.2265 8.14004V8.64404H82.8825V8.80004C82.8825 9.24804 83.0225 9.61204 83.3025 9.89204C83.5825 10.164 83.9745 10.3 84.4785 10.3C84.8625 10.3 85.1905 10.224 85.4625 10.072C85.7425 9.91204 85.9745 9.70404 86.1585 9.44804L87.0345 10.324C86.8105 10.652 86.4825 10.932 86.0505 11.164C85.6265 11.396 85.0865 11.512 84.4305 11.512ZM84.3225 6.16004C83.8905 6.16004 83.5425 6.29604 83.2785 6.56804C83.0145 6.84004 82.8825 7.20004 82.8825 7.64804V7.73204H85.6905V7.62404C85.6905 7.17604 85.5665 6.82004 85.3185 6.55604C85.0785 6.29204 84.7465 6.16004 84.3225 6.16004Z" fill="white"/>
</svg>
