<svg width="599" height="157" viewBox="0 0 599 157" fill="none" xmlns="http://www.w3.org/2000/svg">
<path fill-rule="evenodd" clip-rule="evenodd" d="M68.0474 0.628007C69.3871 -0.209336 71.0871 -0.209336 72.4268 0.628007L138.532 41.9438C139.74 42.6988 140.474 44.0228 140.474 45.4474V111.553C140.474 112.977 139.74 114.301 138.532 115.056L72.4268 156.372C71.0871 157.209 69.3871 157.209 68.0474 156.372L1.94209 115.056C0.734094 114.301 0.000244141 112.977 0.000244141 111.553V45.4474C0.000244141 44.0228 0.734094 42.6988 1.94209 41.9438L68.0474 0.628007ZM8.2634 47.7373V109.263L70.2371 147.996L132.211 109.263V47.7373L70.2371 9.00373L8.2634 47.7373Z" fill="white"/>
<path fill-rule="evenodd" clip-rule="evenodd" d="M67.8688 25.5367C69.2914 24.5409 71.1849 24.5409 72.6075 25.5367L113.923 54.4578C115.028 55.2309 115.686 56.4943 115.686 57.8425V100.535C115.686 101.917 114.995 103.207 113.846 103.973L72.5299 131.517C71.1421 132.442 69.3342 132.442 67.9464 131.517L26.6306 103.973C25.4812 103.207 24.7908 101.917 24.7908 100.535V57.8425C24.7908 56.4943 25.4486 55.2309 26.553 54.4578L67.8688 25.5367ZM33.0539 59.9936V98.3243L70.2381 123.114L107.422 98.3243V59.9936L70.2381 33.9647L33.0539 59.9936Z" fill="white"/>
<path fill-rule="evenodd" clip-rule="evenodd" d="M0.437087 43.6C1.45754 41.5591 3.93927 40.7319 5.98018 41.7523L30.7697 54.1471C32.8106 55.1675 33.6378 57.6493 32.6174 59.6902C31.5969 61.7311 29.1152 62.5583 27.0743 61.5379L2.28479 49.1431C0.243875 48.1227 -0.583368 45.6409 0.437087 43.6Z" fill="white"/>
<path fill-rule="evenodd" clip-rule="evenodd" d="M70.2375 0C72.5193 0 74.3691 1.84977 74.3691 4.13158V28.9211C74.3691 31.2029 72.5193 33.0526 70.2375 33.0526C67.9557 33.0526 66.106 31.2029 66.106 28.9211V4.13158C66.106 1.84977 67.9557 0 70.2375 0Z" fill="white"/>
<path fill-rule="evenodd" clip-rule="evenodd" d="M32.6174 97.3098C33.6378 99.3507 32.8106 101.832 30.7697 102.853L5.98018 115.248C3.93927 116.268 1.45754 115.441 0.437087 113.4C-0.583368 111.359 0.243875 108.877 2.28479 107.857L27.0743 95.4621C29.1152 94.4417 31.5969 95.2689 32.6174 97.3098Z" fill="white"/>
<path fill-rule="evenodd" clip-rule="evenodd" d="M70.2375 123.948C72.5193 123.948 74.3691 125.797 74.3691 128.079V152.869C74.3691 155.15 72.5193 157 70.2375 157C67.9557 157 66.106 155.15 66.106 152.869V128.079C66.106 125.797 67.9557 123.948 70.2375 123.948Z" fill="white"/>
<path fill-rule="evenodd" clip-rule="evenodd" d="M107.858 97.3098C108.879 95.2689 111.36 94.4417 113.401 95.4621L138.191 107.857C140.232 108.877 141.059 111.359 140.038 113.4C139.018 115.441 136.536 116.268 134.495 115.248L109.706 102.853C107.665 101.832 106.838 99.3507 107.858 97.3098Z" fill="white"/>
<path fill-rule="evenodd" clip-rule="evenodd" d="M140.038 43.6C141.059 45.6409 140.232 48.1227 138.191 49.1431L113.401 61.5379C111.36 62.5583 108.879 61.7311 107.858 59.6902C106.838 57.6493 107.665 55.1675 109.706 54.1471L134.495 41.7523C136.536 40.7319 139.018 41.5591 140.038 43.6Z" fill="white"/>
<path d="M255.533 140.568H241.348C235.712 140.568 231.557 139.135 228.882 136.27C226.303 133.404 225.013 129.535 225.013 124.664V117.07C219.377 116.401 214.315 114.777 209.825 112.198C205.335 109.619 201.515 106.18 198.362 101.881C195.21 97.5828 192.774 92.4245 191.055 86.4065C189.335 80.293 188.476 73.4154 188.476 65.7735C188.476 57.3674 189.479 49.9644 191.485 43.5643C193.586 37.0687 196.5 31.6717 200.225 27.3731C204.046 22.979 208.583 19.6835 213.837 17.4864C219.186 15.1939 225.109 14.0476 231.604 14.0476C238.1 14.0476 243.975 15.1939 249.228 17.4864C254.578 19.6835 259.115 22.979 262.841 27.3731C266.661 31.6717 269.575 37.0687 271.581 43.5643C273.682 49.9644 274.733 57.3674 274.733 65.7735C274.733 80.6751 271.629 92.4723 265.42 101.165C259.211 109.762 250.805 114.968 240.201 116.783V127.099H255.533V140.568ZM231.604 103.028C235.425 103.028 238.912 102.359 242.064 101.022C245.312 99.6843 248.034 97.7738 250.231 95.2902C252.524 92.7111 254.291 89.6066 255.533 85.9767C256.775 82.3468 257.396 78.2393 257.396 73.6542V57.8928C257.396 53.3077 256.775 49.2002 255.533 45.5703C254.291 41.9404 252.524 38.8837 250.231 36.4001C248.034 33.8209 245.312 31.8627 242.064 30.5254C238.912 29.1881 235.425 28.5194 231.604 28.5194C227.688 28.5194 224.154 29.1881 221.001 30.5254C217.849 31.8627 215.127 33.8209 212.834 36.4001C210.637 38.8837 208.918 41.9404 207.676 45.5703C206.434 49.2002 205.813 53.3077 205.813 57.8928V73.6542C205.813 78.2393 206.434 82.3468 207.676 85.9767C208.918 89.6066 210.637 92.7111 212.834 95.2902C215.127 97.7738 217.849 99.6843 221.001 101.022C224.154 102.359 227.688 103.028 231.604 103.028Z" fill="white"/>
<path d="M333.181 103.457H332.608C331.939 105.272 331.032 107.04 329.886 108.759C328.835 110.478 327.45 112.007 325.73 113.344C324.106 114.586 322.1 115.589 319.712 116.353C317.42 117.117 314.745 117.499 311.688 117.499C303.951 117.499 297.933 115.016 293.634 110.049C289.431 105.081 287.33 97.9649 287.33 88.6991V41.2718H302.948V86.6931C302.948 98.2514 307.724 104.031 317.277 104.031C319.282 104.031 321.241 103.792 323.151 103.314C325.062 102.741 326.733 101.929 328.166 100.878C329.695 99.8276 330.889 98.4903 331.748 96.8664C332.704 95.2425 333.181 93.332 333.181 91.135V41.2718H348.799V115.78H333.181V103.457Z" fill="white"/>
<path d="M420.023 115.78C415.916 115.78 412.763 114.634 410.566 112.341C408.369 109.953 407.032 106.944 406.554 103.314H405.838C404.405 107.995 401.778 111.529 397.957 113.917C394.136 116.305 389.503 117.499 384.059 117.499C376.321 117.499 370.351 115.493 366.148 111.481C362.04 107.469 359.987 102.072 359.987 95.2902C359.987 87.8394 362.661 82.2513 368.011 78.5259C373.455 74.8005 381.384 72.9378 391.796 72.9378H405.265V66.6332C405.265 62.0481 404.023 58.5137 401.539 56.0301C399.056 53.5465 395.187 52.3047 389.933 52.3047C385.539 52.3047 381.957 53.2599 379.187 55.1704C376.417 57.0809 374.076 59.5167 372.166 62.4779L362.852 54.0241C365.336 49.8211 368.823 46.3823 373.312 43.7076C377.802 40.9374 383.676 39.5523 390.936 39.5523C400.584 39.5523 407.987 41.7971 413.145 46.2867C418.304 50.7763 420.883 57.2242 420.883 65.6302V103.028H428.763V115.78H420.023ZM388.5 105.607C393.372 105.607 397.384 104.556 400.536 102.454C403.689 100.257 405.265 97.344 405.265 93.7141V82.9677H392.082C381.288 82.9677 375.891 86.311 375.891 92.9977V95.5768C375.891 98.9201 376.99 101.451 379.187 103.171C381.479 104.795 384.584 105.607 388.5 105.607Z" fill="white"/>
<path d="M438.339 115.78V41.2718H453.957V55.6003H454.673C455.724 51.7793 457.921 48.436 461.265 45.5703C464.608 42.7046 469.241 41.2718 475.163 41.2718H479.318V56.3167H473.157C466.948 56.3167 462.172 57.3197 458.829 59.3257C455.581 61.3317 453.957 64.2929 453.957 68.2093V115.78H438.339Z" fill="white"/>
<path d="M487.459 115.78V41.2718H503.077V55.6003H503.793C504.844 51.7793 507.041 48.436 510.384 45.5703C513.728 42.7046 518.361 41.2718 524.283 41.2718H528.438V56.3167H522.277C516.068 56.3167 511.292 57.3197 507.949 59.3257C504.701 61.3317 503.077 64.2929 503.077 68.2093V115.78H487.459Z" fill="white"/>
<path d="M583.546 41.2718H598.591L567.211 130.538C566.352 133.022 565.349 135.123 564.202 136.843C563.152 138.658 561.862 140.091 560.334 141.141C558.901 142.288 557.134 143.1 555.032 143.577C552.931 144.15 550.447 144.437 547.581 144.437H538.554V131.685H551.164L555.462 119.076L528.381 41.2718H543.999L558.901 85.117L563.199 101.308H563.916L568.644 85.117L583.546 41.2718Z" fill="white"/>
</svg>
