<svg width="736" height="174" viewBox="0 0 736 174" fill="none" xmlns="http://www.w3.org/2000/svg">
<path fill-rule="evenodd" clip-rule="evenodd" d="M43.5 0C19.4756 0 0 19.4756 0 43.5V130.5C0 154.524 19.4756 174 43.5 174H130.5C154.524 174 174 154.524 174 130.5V43.5C174 19.4756 154.524 0 130.5 0H43.5ZM66.1158 63.2066H38.0625C39.1015 49.076 50.9463 38.0625 65.2846 38.0625H139.886C138.847 52.1931 127.002 63.2066 112.664 63.2066H111.625C108.508 63.2066 106.014 65.7002 106.014 68.8173C106.014 71.9343 108.508 74.4279 111.625 74.4279H112.664C127.002 74.4279 138.847 85.4415 139.886 99.5721H111.832C108.715 99.5721 106.222 102.066 106.222 105.183C106.222 108.3 108.715 110.793 111.832 110.793H139.886C138.847 124.924 127.002 135.938 112.664 135.938H38.0625C39.1015 121.807 50.9463 110.793 65.2846 110.793H66.3236C69.4407 110.793 71.9343 108.3 71.9343 105.183C71.9343 102.066 69.4407 99.5721 66.3236 99.5721H65.2846C50.9463 99.5721 39.1015 88.5585 38.0625 74.4279H66.1158C69.2329 74.4279 71.7265 71.9343 71.7265 68.8173C71.7265 65.7002 69.2329 63.2066 66.1158 63.2066Z" fill="white"/>
<path d="M305.043 66.2134H329.045C328.843 46.8192 313.398 33.7041 289.295 33.7041C265.597 33.7041 248.532 46.6167 248.684 65.9095C248.633 81.6578 259.672 90.5193 277.598 94.621L288.434 97.1529C299.828 99.786 304.942 102.875 305.043 108.698C304.942 115.028 299.017 119.433 288.941 119.433C277.851 119.433 270.559 114.268 270.002 104.293H246C246.304 128.548 263.166 140.144 289.244 140.144C315.07 140.144 330.362 128.447 330.463 108.749C330.362 92.1904 319.171 82.0629 298.714 77.5562L289.801 75.5307C280.383 73.5052 274.408 70.3656 274.61 64.1879C274.661 58.5165 279.522 54.4148 289.244 54.4148C299.017 54.4148 304.385 58.8203 305.043 66.2134Z" fill="white"/>
<path d="M373.777 140.296C394.183 140.296 407.602 130.422 410.438 115.129L387.702 114.471C385.778 119.636 380.714 122.421 374.232 122.421C364.712 122.421 358.839 116.091 358.839 106.571V105.913H410.691V99.7354C410.691 74.1128 395.095 60.0356 373.017 60.0356C349.521 60.0356 334.431 76.1383 334.431 100.242C334.431 125.155 349.319 140.296 373.777 140.296ZM358.839 91.5321C359.193 83.7846 365.32 77.9106 373.523 77.9106C381.676 77.9106 387.55 83.582 387.651 91.5321H358.839Z" fill="white"/>
<path d="M442.396 94.4691C442.447 85.6075 447.612 80.3412 455.46 80.3412C463.309 80.3412 467.968 85.5062 467.917 94.1146V138.827H492.679V89.2534C492.73 71.7328 482.045 60.0356 465.689 60.0356C454.194 60.0356 445.485 65.8589 442.041 75.3281H441.181V61.0483H417.634V138.827H442.396V94.4691Z" fill="white"/>
<path d="M538.613 140.296C560.488 140.296 574.059 127.586 574.717 108.344H551.576C550.664 116.598 545.702 121.104 538.916 121.104C530.207 121.104 524.535 113.762 524.535 99.9379C524.535 86.2152 530.257 78.8727 538.916 78.8727C546.006 78.8727 550.614 83.6833 551.576 91.6334H574.717C574.16 72.4924 560.184 60.0356 538.562 60.0356C514.104 60.0356 499.318 76.3408 499.318 100.191C499.318 123.94 514.003 140.296 538.613 140.296Z" fill="white"/>
<path d="M606.447 94.4691C606.498 85.6075 611.764 80.3412 619.613 80.3412C627.563 80.3412 632.171 85.4556 632.12 94.1146V138.827H656.882V89.2534C656.933 71.6316 646.198 60.0356 629.842 60.0356C618.195 60.0356 609.992 65.7576 606.498 75.3281H605.637V35.122H581.685V138.827H606.447V94.4691Z" fill="white"/>
<path d="M688.561 140.144C699.398 140.144 706.892 135.941 711.146 127.991H711.753V138.827H735.047V85.962C735.047 69.5048 720.412 60.0356 700.613 60.0356C679.7 60.0356 667.851 70.5682 665.876 84.7467L688.713 85.5569C689.777 80.5944 693.878 77.5562 700.411 77.5562C706.487 77.5562 710.335 80.4931 710.335 85.7088V85.962C710.335 90.7219 705.17 91.7346 691.903 92.8993C676.155 94.2159 662.989 100.039 662.989 117.256C662.989 132.65 673.674 140.144 688.561 140.144ZM696.208 123.94C690.486 123.94 686.435 121.206 686.435 116.041C686.435 111.028 690.384 107.989 697.423 106.926C702.031 106.268 707.702 105.255 710.487 103.786V111.179C710.487 118.775 704.107 123.94 696.208 123.94Z" fill="white"/>
</svg>
