<svg width="111" height="29" viewBox="0 0 111 29" fill="none" xmlns="http://www.w3.org/2000/svg">
<path d="M8.95422 0.246094L11.4158 2.58455C12.3388 3.44609 12.8311 4.61532 12.8311 5.90763C12.8311 7.1384 13.3235 8.30763 14.185 9.16917L14.4927 9.47686L17.3235 0.307627" fill="white"/>
<path d="M0.585022 8.43065L3.96964 8.30758C5.20041 8.24604 6.43117 8.73835 7.29271 9.59989C8.15425 10.4614 9.32348 10.8922 10.5543 10.8922H10.985L6.43118 2.46143" fill="white"/>
<path d="M0.585008 20.1231L2.86193 17.6616C3.72347 16.7385 4.8927 16.1847 6.12347 16.1847C7.35424 16.1847 8.46193 15.6308 9.32347 14.7693L9.63116 14.4616L0.400391 11.8154" fill="white"/>
<path d="M8.95424 28.2462L8.76963 24.8616C8.7081 23.6308 9.13887 22.4001 10.0004 21.477C10.8004 20.6154 11.2927 19.3847 11.2312 18.2154V17.7847L2.86194 22.5231" fill="white"/>
<path d="M20.6466 28L18.1235 25.7846C17.2004 24.9846 16.6466 23.8154 16.585 22.5231C16.5235 21.2923 15.9696 20.1846 15.1081 19.3231L14.8004 19.0154L12.3389 28.3077" fill="white"/>
<path d="M28.6465 19.4463L25.2619 19.6924C24.0312 19.8155 22.8004 19.3847 21.8773 18.5232C20.9542 17.7232 19.785 17.2924 18.5542 17.3539H18.1235L23.0466 25.6001" fill="white"/>
<path d="M28.0927 7.81543L25.9389 10.4001C25.1389 11.3231 23.9696 11.9385 22.7389 12C21.5081 12.0616 20.4004 12.6154 19.6004 13.5385L19.3542 13.8462L28.7081 16.0616" fill="white"/>
<path d="M19.4158 0L19.7235 3.38462C19.8466 4.61538 19.4774 5.84616 18.6158 6.83077C17.8158 7.75385 17.4466 8.92308 17.5081 10.1538L17.5697 10.5846L25.6927 5.47693" fill="white"/>
<path d="M49.9416 6.61556H52.7208C52.6368 3.49501 49.9323 1.23071 46.0527 1.23071C42.2198 1.23071 39.2822 3.46647 39.2822 6.82486C39.2822 9.53632 41.1846 11.1251 44.2529 11.9719L46.5097 12.5998C48.5521 13.1516 50.1282 13.8366 50.1282 15.5681C50.1282 17.4709 48.3469 18.7267 45.8942 18.7267C43.6746 18.7267 41.8281 17.7182 41.6603 15.5966H38.7692C38.9557 19.1263 41.6323 21.305 45.9129 21.305C50.3986 21.305 52.9819 18.898 52.9819 15.5966C52.9819 12.086 49.9137 10.7256 47.4889 10.1167L45.6238 9.62194C44.1316 9.23187 42.1452 8.51833 42.1545 6.65362C42.1545 4.9982 43.6373 3.77092 45.9875 3.77092C48.1791 3.77092 49.7365 4.81744 49.9416 6.61556Z" fill="white"/>
<path d="M64.2253 14.9212C64.2346 17.4043 62.4254 18.584 60.8586 18.584C59.1333 18.584 57.9396 17.3091 57.9396 15.3207V6.3682H55.1512V15.6632C55.1512 19.288 57.1003 21.1718 59.8514 21.1718C62.0057 21.1718 63.4699 20.0111 64.132 18.4508H64.2812V20.9815H67.023V6.3682H64.2253V14.9212Z" fill="white"/>
<path d="M72.5077 12.3049C72.5077 9.97395 73.9066 8.64201 75.8464 8.64201C77.7395 8.64201 78.8866 9.90736 78.8866 12.0289V20.9815H81.6751V11.6864C81.6751 8.07118 79.7259 6.17792 76.7976 6.17792C74.6433 6.17792 73.2351 7.19591 72.573 8.74667H72.3958V6.3682H69.7193V20.9815H72.5077V12.3049Z" fill="white"/>
<path d="M87.1527 12.3049C87.1527 9.97395 88.5516 8.64201 90.4914 8.64201C92.3845 8.64201 93.5316 9.90736 93.5316 12.0289V20.9815H96.3201V11.6864C96.3201 8.07118 94.371 6.17792 91.4426 6.17792C89.2883 6.17792 87.8801 7.19591 87.218 8.74667H87.0408V6.3682H84.3643V20.9815H87.1527V12.3049Z" fill="white"/>
<path d="M100.259 26.4615C102.562 26.4615 104.017 25.2342 104.847 22.9318L110.769 6.39674L107.757 6.3682L104.129 17.7087H103.98L100.352 6.3682H97.3679L102.609 21.1718L102.264 22.1422C101.555 24.083 100.557 24.2448 99.0279 23.8166L98.3565 26.1475C98.6922 26.2997 99.4196 26.4615 100.259 26.4615Z" fill="white"/>
</svg>
