<svg width="126" height="32" viewBox="0 0 126 32" fill="none" xmlns="http://www.w3.org/2000/svg">
<path d="M45.8543 24.7816C46.5567 24.7816 47.1749 24.6692 47.5963 24.5568V22.3091C47.2311 22.3652 46.922 22.3933 46.5848 22.3933C45.2924 22.3933 44.5899 21.7471 44.5899 20.2299V13.2337H47.5963V10.986H44.5899V6.32184H41.7802V10.986H39.0267V13.2337H41.7802V20.567C41.7802 23.6015 43.4942 24.7816 45.8543 24.7816Z" fill="white"/>
<path d="M52.0534 24.5849V17.5607C52.0534 14.5543 53.5707 13.2337 55.987 13.2337C56.3804 13.2337 56.6333 13.2618 56.8299 13.318V10.5645C56.6052 10.5364 56.3804 10.5364 56.1837 10.5364C54.1045 10.5364 52.6997 11.7727 52.0253 13.318C52.0534 12.8123 52.0534 12.2784 52.0534 11.7446V10.986H49.2718V24.5849H52.0534Z" fill="white"/>
<path d="M61.7118 25.0345C63.8472 25.0345 65.3082 24.1073 65.9825 22.7305C65.9544 23.152 65.9263 23.5453 65.9263 23.9387V24.5849H68.5675V16.0153C68.5675 12.6156 66.7412 10.5364 63.0604 10.5364C59.6045 10.5364 57.5253 12.6718 57.3848 15.2848H60.2226C60.3069 13.7114 61.3746 12.6718 63.2571 12.6718C64.8025 12.6718 65.814 13.5428 65.814 14.8352C65.814 15.5939 65.4487 15.9591 64.381 16.1277L61.8242 16.5211C59.2112 16.9144 57.0196 18.0664 57.0196 20.848C57.0196 23.461 59.1831 25.0345 61.7118 25.0345ZM62.2737 22.8991C60.9532 22.8991 59.8855 22.1405 59.8855 20.7918C59.8855 19.4432 61.0656 18.7969 62.6671 18.4879L64.2967 18.1788C65.1396 18.0102 65.6173 17.8416 65.842 17.5888V19.387C65.842 21.4942 64.2967 22.8991 62.2737 22.8991Z" fill="white"/>
<path d="M77.154 25.0345C81.0032 25.0345 83.1667 22.9272 83.5039 19.7803H80.6942C80.4975 21.6066 79.2612 22.8429 77.2382 22.8429C74.8219 22.8429 73.2204 20.8199 73.2204 17.7854C73.2204 14.779 74.8781 12.7561 77.2382 12.7561C79.2331 12.7561 80.357 14.0766 80.5256 15.7624H83.3915C83.1105 12.6437 80.7785 10.5364 77.2663 10.5364C73.389 10.5364 70.3545 13.3742 70.3545 17.7573C70.3545 22.4776 73.2204 25.0345 77.154 25.0345Z" fill="white"/>
<path d="M90.4463 24.7816C91.1487 24.7816 91.7668 24.6692 92.1883 24.5568V22.3091C91.823 22.3652 91.514 22.3933 91.1768 22.3933C89.8843 22.3933 89.1819 21.7471 89.1819 20.2299V13.2337H92.1883V10.986H89.1819V6.32184H86.3722V10.986H83.6187V13.2337H86.3722V20.567C86.3722 23.6015 88.0861 24.7816 90.4463 24.7816Z" fill="white"/>
<path d="M93.6952 8.5977H96.7859V5.45084H93.6952V8.5977ZM93.8638 10.986V24.5849H96.6454V10.986H93.8638Z" fill="white"/>
<path d="M105.391 25.0345C109.353 25.0345 112.191 22.1967 112.191 17.7854C112.191 13.4585 109.353 10.5364 105.391 10.5364C101.402 10.5364 98.592 13.4585 98.592 17.7854C98.592 22.1967 101.402 25.0345 105.391 25.0345ZM105.391 22.8429C102.975 22.8429 101.458 20.8761 101.458 17.7854C101.458 14.6948 103.031 12.7561 105.391 12.7561C107.752 12.7561 109.325 14.6948 109.325 17.7854C109.325 20.8761 107.808 22.8429 105.391 22.8429Z" fill="white"/>
<path d="M116.925 24.5849V16.4649C116.925 14.4138 118.273 12.7561 120.381 12.7561C122.319 12.7561 123.218 14.0204 123.218 16.3806V24.5849H126V15.9872C126 12.5594 124.146 10.5364 121.055 10.5364C119.116 10.5364 117.599 11.6041 116.897 12.8685C116.925 12.4751 116.925 12.1379 116.925 11.8008V10.986H114.143V24.5849H116.925Z" fill="white"/>
<path fill-rule="evenodd" clip-rule="evenodd" d="M15.8046 31.6092C24.5332 31.6092 31.6092 24.5332 31.6092 15.8046C31.6092 7.07595 24.5332 0 15.8046 0C7.07595 0 0 7.07595 0 15.8046C0 24.5332 7.07595 31.6092 15.8046 31.6092ZM12.7607 8.07789L15.5704 5.26819L18.3801 8.07789H12.7607ZM5.26819 12.5266L8.07789 9.71688V11.1217H14.1656V8.0779H16.9753V11.1217H23.5312V13.9314H16.9753V23.5312H18.3801L15.5704 26.341L12.7607 23.5312H14.1656V13.9314H8.07789V15.3363L5.26819 12.5266ZM26.341 12.5266L23.5313 9.71688V15.3363L26.341 12.5266Z" fill="white"/>
</svg>
