<svg width="800" height="418" viewBox="0 0 800 418" fill="none" xmlns="http://www.w3.org/2000/svg">
<rect width="800" height="418" fill="#292A2C"/>
<path d="M81 138H109.745V154.075H121.243V138H152.862V154.075H164.36V138H193.105V162.113L170.109 178.189L175.858 226.415H98.247L103.996 178.189L81 162.113V138Z" fill="white"/>
<path d="M98.247 237.132H175.858L193.105 258.566V280H81V258.566L98.247 237.132Z" fill="white"/>
<path d="M257.165 180.632H285.692V257.568H305.165V180.632H333.692V164.39H257.165V180.632Z" fill="white"/>
<path d="M338.674 257.568H358.056V218.031C358.056 209.432 364.334 203.518 372.888 203.518C375.572 203.518 379.257 203.973 381.077 204.564V187.366C379.348 186.957 376.937 186.684 374.981 186.684C367.155 186.684 360.74 191.233 358.192 199.878H357.464V187.685H338.674V257.568Z" fill="white"/>
<path d="M391.098 257.568H410.48V187.685H391.098V257.568ZM400.834 178.676C406.613 178.676 411.344 174.263 411.344 168.849C411.344 163.48 406.613 159.067 400.834 159.067C395.102 159.067 390.37 163.48 390.37 168.849C390.37 174.263 395.102 178.676 400.834 178.676Z" fill="white"/>
<path d="M426.37 257.568H445.479V246.376H446.343C449.027 252.2 454.897 258.706 466.18 258.706C482.104 258.706 494.525 246.103 494.525 222.717C494.525 198.695 481.558 186.775 466.225 186.775C454.533 186.775 448.936 193.736 446.343 199.423H445.752V164.39H426.37V257.568ZM445.342 222.626C445.342 210.16 450.62 202.198 460.038 202.198C469.638 202.198 474.733 210.524 474.733 222.626C474.733 234.82 469.547 243.282 460.038 243.282C450.711 243.282 445.342 235.093 445.342 222.626Z" fill="white"/>
<path d="M539.305 258.933C556.594 258.933 568.242 250.516 570.971 237.55L553.045 236.367C551.089 241.69 546.084 244.465 539.624 244.465C529.933 244.465 523.791 238.05 523.791 227.631V227.586H571.381V222.262C571.381 198.513 557.004 186.775 538.532 186.775C517.967 186.775 504.636 201.379 504.636 222.945C504.636 245.102 517.785 258.933 539.305 258.933ZM523.791 215.574C524.2 207.612 530.251 201.243 538.85 201.243C547.267 201.243 553.091 207.248 553.136 215.574H523.791Z" fill="white"/>
<path d="M615.604 258.933C634.213 258.933 645.905 248.014 646.815 231.953H628.525C627.388 239.415 622.474 243.601 615.832 243.601C606.778 243.601 600.909 236.003 600.909 222.626C600.909 209.432 606.823 201.88 615.832 201.88C622.929 201.88 627.479 206.566 628.525 213.527H646.815C645.996 197.375 633.758 186.775 615.513 186.775C594.312 186.775 581.208 201.47 581.208 222.899C581.208 244.147 594.084 258.933 615.604 258.933Z" fill="white"/>
<path d="M679.153 258.888C689.48 258.888 696.169 254.384 699.581 247.877H700.127V257.568H718.508V210.433C718.508 193.781 704.404 186.775 688.843 186.775C672.1 186.775 661.09 194.782 658.406 207.521L676.332 208.977C677.651 204.337 681.791 200.924 688.752 200.924C695.35 200.924 699.126 204.246 699.126 209.978V210.251C699.126 214.755 694.349 215.347 682.201 216.53C668.37 217.804 655.949 222.444 655.949 238.05C655.949 251.881 665.822 258.888 679.153 258.888ZM684.703 245.512C678.743 245.512 674.466 242.736 674.466 237.413C674.466 231.953 678.971 229.269 685.795 228.314C690.026 227.722 696.942 226.721 699.262 225.174V232.59C699.262 239.915 693.211 245.512 684.703 245.512Z" fill="white"/>
</svg>
