<svg width="632" height="149" viewBox="0 0 632 149" fill="none" xmlns="http://www.w3.org/2000/svg">
<path d="M202.34 147.45L258.19 16.63H284.69L340.34 147.45H310.17L298.55 119.23H243.11L231.49 147.45H202.34ZM260.84 76.25L252.28 97.18H289.58L280.82 75.87C280 74 279.05 71.55 278 68.49C276.95 65.43 275.73 62.17 274.44 58.68C273.15 55.19 272 51.89 271 48.77C269.387 53.39 267.7 58.1333 265.94 63C264.18 67.8667 262.48 72.2833 260.84 76.25V76.25Z" fill="white"/>
<path d="M347.27 147.45V71.7601H326.88V48.76H347.27V23.55H375V48.7701H397.62V71.77H375V147.46L347.27 147.45Z" fill="white"/>
<path d="M405.15 147.45V48.77H432.06L432.47 65C436.064 59.5938 440.854 55.0875 446.47 51.83C451.965 48.4791 458.274 46.7012 464.71 46.69C466.995 46.6804 469.278 46.8375 471.54 47.16C473.371 47.4099 475.177 47.8147 476.94 48.37L469.4 76.37C467.579 75.5194 465.662 74.8915 463.69 74.5C461.412 74.0117 459.089 73.7637 456.76 73.76C450.557 73.5861 444.529 75.8309 439.95 80.02C437.733 81.9982 435.974 84.4354 434.795 87.1622C433.615 89.889 433.044 92.84 433.12 95.81V147.39L405.15 147.45Z" fill="white"/>
<path d="M498.1 28.22C492.673 28.22 488.427 26.9733 485.36 24.48C483.848 23.2418 482.647 21.6675 481.852 19.8826C481.057 18.0978 480.69 16.1519 480.78 14.2C480.718 12.2519 481.098 10.315 481.891 8.53467C482.684 6.75429 483.87 5.17663 485.36 3.92C488.453 1.30667 492.7 0 498.1 0C503.5 0 507.713 1.24667 510.74 3.74C513.733 6.23333 515.227 9.72 515.22 14.2C515.27 16.1188 514.884 18.0239 514.091 19.7718C513.297 21.5196 512.117 23.0645 510.64 24.29C507.58 26.91 503.4 28.22 498.1 28.22ZM484.24 147.45V48.77H512.17V147.45H484.24Z" fill="white"/>
<path d="M519.1 147.45L559.45 97.36L519.71 48.77H553.54L577.19 79.05L596.55 48.77H629.16L591.86 97.36L632 147.45H598.79L574.13 115.86L551.91 147.45H519.1Z" fill="white"/>
<path d="M53.8101 64.3101L94.9401 135.97" stroke="white" stroke-width="21.04" stroke-miterlimit="10" stroke-linecap="round"/>
<path d="M78.3501 25.74L143.21 136.18" stroke="white" stroke-width="21.04" stroke-miterlimit="10" stroke-linecap="round"/>
<path d="M31.02 104.63L49.52 137.47" stroke="white" stroke-width="21.04" stroke-miterlimit="10" stroke-linecap="round"/>
<path d="M95.52 137.47L142.93 137.64" stroke="white" stroke-width="21.04" stroke-miterlimit="10" stroke-linecap="round"/>
<path d="M30.52 104.47L53.52 64.47" stroke="white" stroke-width="21.04" stroke-miterlimit="10" stroke-linecap="round"/>
</svg>
