<svg width="55" height="20" viewBox="0 0 55 20" fill="none" xmlns="http://www.w3.org/2000/svg">
<g clip-path="url(#clip0_1309_7341)">
<path d="M7.73324 14.0877C7.67046 14.0877 7.61268 14.0894 7.55546 14.0905V13.86C10.2249 13.5939 12.3044 11.4911 12.3044 9.80385C12.3044 7.99885 12.3044 10.6205 6.99213 10.6205C1.68213 10.6205 1.68213 7.99885 1.68213 9.80385C1.68213 11.4944 3.76935 13.6027 6.44435 13.8622V14.0905C6.38657 14.0894 6.32935 14.0877 6.26602 14.0877C4.84768 14.0877 2.59768 12.9489 2.59768 13.3544C2.59768 13.7133 4.9238 15.5861 6.44435 16.0189V19.4444C6.44435 19.7516 6.69268 20 6.99991 20C7.30713 20 7.55546 19.7516 7.55546 19.4444V16.0189C9.07657 15.5861 11.4021 13.7133 11.4021 13.3544C11.4021 12.9494 9.15213 14.0877 7.73324 14.0877V14.0877Z" fill="#CFCFCF"/>
<path d="M11.7373 4.085C9.57787 1.63389 12.574 0.817222 10.2973 0.817222C9.9012 0.817222 9.23009 1.06167 8.46954 1.47778C8.08398 0.604445 7.56843 0 7.00009 0C5.8612 0 4.93009 2.41222 4.84843 4.59389C4.23287 5.45111 3.81787 6.39111 3.81787 7.35278C3.81787 10.7372 5.25732 12.2544 7.41732 12.2544C11.7373 12.255 14.9973 7.78389 11.7373 4.085V4.085Z" fill="#F2F2F2"/>
<path d="M10.1822 7.35276C10.1822 10.7372 8.74333 12.2544 6.58222 12.2544C2.26222 12.2544 -0.997229 7.78332 2.26222 4.08443C4.42277 1.63332 1.4261 0.81665 3.70222 0.81665C5.14277 0.817206 10.1822 3.96887 10.1822 7.35276Z" fill="white"/>
</g>
<path d="M26.5711 17.0914C30.1938 17.0914 32.4484 14.991 32.776 11.8692H30.2516C29.9819 13.6614 28.6522 14.9524 26.6482 14.9524C24.2972 14.9524 22.6015 13.0447 22.6015 9.9037C22.6015 6.87831 24.3165 5.04766 26.706 5.04766C28.6908 5.04766 29.847 6.2424 30.0975 7.99597H32.7182C32.3713 4.79715 30.0011 2.90869 26.706 2.90869C22.8905 2.90869 20 5.56795 20 9.9037C20 14.49 22.5629 17.0914 26.5711 17.0914Z" fill="white"/>
<path d="M43.3078 16.7446V14.6056H36.5248V3.25555H34.0004V16.7446H43.3078Z" fill="white"/>
<path d="M49.5972 16.7446C52.3143 16.7446 54.8772 15.7425 54.8772 12.8713C54.8772 11.0792 53.6246 9.98078 51.8518 9.61465C53.2392 9.24852 54.4725 8.34283 54.4725 6.66634C54.4725 4.21905 52.4684 3.25555 49.867 3.25555H44.1631V16.7446H49.5972ZM46.6489 5.39452H49.5587C51.1774 5.39452 51.8711 5.97262 51.8711 6.97466C51.8711 8.05378 51.1774 8.68969 49.5587 8.68969H46.6489V5.39452ZM46.6489 10.7709H49.6936C51.4471 10.7709 52.2757 11.3297 52.2757 12.6786C52.2757 13.9311 51.4471 14.6056 49.6936 14.6056H46.6489V10.7709Z" fill="white"/>
<defs>
<clipPath id="clip0_1309_7341">
<rect width="14" height="20" fill="white"/>
</clipPath>
</defs>
</svg>
