<svg width="1068" height="300" viewBox="0 0 1068 300" fill="none" xmlns="http://www.w3.org/2000/svg">
<path d="M463.75 286.58C545.524 286.58 587.65 238.082 587.65 173.654V142.502H468.706V193.124H516.142C514.726 213.302 501.274 231.356 465.874 231.356C421.978 231.356 406.756 199.496 406.756 158.432V155.6C406.756 109.934 428.35 82.322 464.104 82.322C491.008 82.322 506.23 94.712 509.77 118.43H581.632C576.676 52.586 523.576 25.328 463.75 25.328C387.64 25.328 331 77.366 331 154.538V157.37C331 233.126 377.728 286.58 463.75 286.58Z" fill="white"/>
<path d="M694.951 239.498C670.525 239.498 658.135 222.152 658.135 190.292V187.46C658.135 156.308 671.233 139.67 694.951 139.67C719.023 139.67 731.413 157.016 731.413 188.168V191C731.413 221.798 718.669 239.498 694.951 239.498ZM694.597 286.58C751.591 286.58 795.841 250.472 795.841 190.292V187.46C795.841 128.696 751.945 92.234 694.951 92.234C637.603 92.234 593.353 129.758 593.353 189.23V192.062C593.353 251.888 637.603 286.58 694.597 286.58Z" fill="white"/>
<path d="M809.318 282.332H872.684V201.266L922.598 282.332H993.398L927.908 180.38L988.442 97.19H922.598L872.684 170.468V15.77H809.318V282.332Z" fill="white"/>
<path d="M1001.24 282.332H1064.6V97.19H1001.24V282.332ZM1032.74 79.49C1052.57 79.49 1067.79 65.684 1067.79 46.922C1067.79 28.16 1052.57 14 1032.74 14C1012.92 14 998.052 28.16 998.052 46.922C998.052 65.684 1012.92 79.49 1032.74 79.49Z" fill="white"/>
<path fill-rule="evenodd" clip-rule="evenodd" d="M61.2085 14.55L122.417 0L183.599 14.5404L244.781 29.0807L246 105.896C246 193.052 200.819 265.125 125.138 298.802L122.447 300L119.756 298.802C44.7703 265.436 0 193.359 0 106.001V29.1L61.2085 14.55ZM49.2795 150C49.2795 109.285 82.2853 76.2794 123 76.2794C163.715 76.2794 196.721 109.285 196.721 150C196.721 190.715 163.715 223.721 123 223.721C82.2853 223.721 49.2795 190.715 49.2795 150ZM123 55.7206C70.931 55.7206 28.7207 97.9309 28.7207 150C28.7207 202.069 70.931 244.279 123 244.279C175.069 244.279 217.28 202.069 217.28 150C217.28 97.9309 175.069 55.7206 123 55.7206ZM91.2795 150C91.2795 132.481 105.481 118.279 123 118.279C140.519 118.279 154.721 132.481 154.721 150C154.721 167.519 140.519 181.721 123 181.721C105.481 181.721 91.2795 167.519 91.2795 150ZM123 97.7206C94.127 97.7206 70.7207 121.127 70.7207 150C70.7207 178.873 94.127 202.279 123 202.279C151.873 202.279 175.28 178.873 175.28 150C175.28 121.127 151.873 97.7206 123 97.7206Z" fill="white"/>
</svg>
