<svg width="164" height="60" viewBox="0 0 164 60" fill="none" xmlns="http://www.w3.org/2000/svg">
<path d="M38.6715 48.8908C44.5537 44.3524 48 37.4121 48 29.9071C48 21.9088 44.1012 14.5978 37.6441 10.1547C36.2934 9.22588 34.8237 8.48083 33.2962 7.89226L32.7689 7.68814C31.4148 7.16762 29.9009 7.90587 29.4791 9.29733C29.1014 10.5527 29.7546 11.8829 30.9794 12.3524L31.3808 12.5055C32.4865 12.9273 33.5513 13.4547 34.538 14.1079C39.801 17.6052 42.9887 23.4738 42.9887 29.9071C42.9887 38.5246 37.0351 46.0296 28.9483 48.2342C27.7236 48.5676 26.5124 47.6558 26.5124 46.3834V45.3968V9.63753C26.5124 7.60989 24.8114 5.9939 22.7872 6.09937L21.5862 6.1606C20.0825 6.23885 18.589 6.477 17.1431 6.90566C7.23963 9.86207 0 19.0545 0 29.9071C0 37.4121 3.44971 44.3558 9.33872 48.8908H38.6715ZM21.4944 13.4275V46.3834C21.4944 47.6524 20.2832 48.5676 19.0585 48.2342C10.9683 46.0262 5.01467 38.5246 5.01467 29.9071C5.01467 21.2897 10.9683 13.7847 19.0551 11.5801C20.2832 11.2433 21.4944 12.1585 21.4944 13.4275Z" fill="white"/>
<path d="M2.94278 48.7411C1.5173 48.7411 0.360596 49.8978 0.360596 51.3233C0.360596 52.7487 1.5173 53.9055 2.94278 53.9055H45.0606C46.4861 53.9055 47.6428 52.7487 47.6428 51.3233C47.6428 49.8978 46.4861 48.7411 45.0606 48.7411H2.94278Z" fill="white"/>
<path d="M82.384 14.4C84.176 14.4 85.824 14.864 87.328 15.792C88.832 16.688 90.032 17.92 90.928 19.488C91.824 21.024 92.272 22.768 92.272 24.72C92.272 26.64 91.824 28.4 90.928 30C90.032 31.568 88.832 32.816 87.328 33.744C85.824 34.672 84.176 35.136 82.384 35.136H73.888V48H68.704V14.4H82.384ZM82.288 30.144C83.152 30.144 83.936 29.904 84.64 29.424C85.344 28.912 85.904 28.256 86.32 27.456C86.768 26.624 86.992 25.712 86.992 24.72C86.992 23.216 86.528 21.952 85.6 20.928C84.672 19.904 83.568 19.392 82.288 19.392H73.888V30.144H82.288ZM121.553 35.376C121.553 37.936 120.977 40.208 119.825 42.192C118.705 44.144 117.169 45.68 115.217 46.8C113.297 47.92 111.137 48.48 108.737 48.48C106.337 48.48 104.161 47.92 102.209 46.8C100.257 45.68 98.7051 44.144 97.5531 42.192C96.4331 40.208 95.8731 37.936 95.8731 35.376C95.8731 32.816 96.4331 30.56 97.5531 28.608C98.7051 26.624 100.257 25.072 102.209 23.952C104.161 22.832 106.337 22.272 108.737 22.272C111.137 22.272 113.297 22.832 115.217 23.952C117.169 25.072 118.705 26.624 119.825 28.608C120.977 30.56 121.553 32.816 121.553 35.376ZM116.513 35.376C116.545 33.68 116.209 32.192 115.505 30.912C114.833 29.6 113.905 28.592 112.721 27.888C111.537 27.152 110.209 26.784 108.737 26.784C107.265 26.784 105.921 27.152 104.705 27.888C103.521 28.592 102.577 29.6 101.873 30.912C101.201 32.192 100.881 33.68 100.913 35.376C100.881 37.04 101.201 38.528 101.873 39.84C102.577 41.12 103.521 42.128 104.705 42.864C105.921 43.6 107.265 43.968 108.737 43.968C110.209 43.968 111.537 43.6 112.721 42.864C113.905 42.128 114.833 41.12 115.505 39.84C116.209 38.528 116.545 37.04 116.513 35.376ZM126.94 48V12.48H131.884V48H126.94ZM160.12 44.688H160.072C159.048 45.68 157.64 46.56 155.848 47.328C154.056 48.096 152.184 48.48 150.232 48.48C147.608 48.48 145.288 47.936 143.272 46.848C141.288 45.728 139.736 44.208 138.616 42.288C137.496 40.336 136.936 38.128 136.936 35.664C136.936 32.848 137.528 30.448 138.712 28.464C139.896 26.448 141.464 24.912 143.416 23.856C145.368 22.768 147.496 22.224 149.8 22.224C151.912 22.224 153.832 22.752 155.56 23.808C157.288 24.832 158.664 26.256 159.688 28.08C160.712 29.904 161.224 32.032 161.224 34.464L161.176 36.576H141.88C142.168 38.848 143.096 40.656 144.664 42C146.264 43.312 148.28 43.968 150.712 43.968C152.472 43.968 153.896 43.648 154.984 43.008C156.072 42.336 156.968 41.696 157.672 41.088L160.12 44.688ZM149.8 26.784C147.912 26.784 146.264 27.232 144.856 28.128C143.448 28.992 142.52 30.496 142.072 32.64H156.184V32.304C156.088 31.216 155.72 30.256 155.08 29.424C154.472 28.592 153.704 27.952 152.776 27.504C151.848 27.024 150.856 26.784 149.8 26.784Z" fill="white"/>
</svg>
