<svg width="60" height="24" viewBox="0 0 60 24" fill="none" xmlns="http://www.w3.org/2000/svg">
<path d="M27.4375 17.4867V6.26996H32.0199C33.3449 6.26996 34.3921 6.62882 35.1613 7.34287C35.9306 8.05875 36.3152 9.00468 36.3152 10.1788C36.3152 11.4284 35.8883 12.3982 35.0325 13.0865C34.1786 13.7766 33.0928 14.1208 31.7788 14.1208H29.9054V17.4867H27.4375ZM29.9054 11.9271H31.8598C32.4689 11.9271 32.9474 11.767 33.2934 11.4468C33.6412 11.1266 33.8142 10.7107 33.8142 10.1972C33.8142 9.65247 33.6375 9.23288 33.286 8.93842C32.9327 8.64581 32.4413 8.49859 31.8119 8.49859H29.9054V11.9271Z" fill="white"/>
<path d="M45.4172 16.3108C44.5136 17.2236 43.3799 17.68 42.0199 17.68C40.6949 17.68 39.5926 17.2493 38.7111 16.3899C37.8351 15.5342 37.3934 14.4815 37.3897 13.2301C37.3842 12.0725 37.8424 10.9297 38.6558 10.1071C39.5594 9.19425 40.6931 8.73785 42.0531 8.73785C43.3781 8.73785 44.4805 9.16849 45.362 10.0279C46.2398 10.8837 46.6796 11.9382 46.6833 13.1914C46.687 14.3472 46.2306 15.49 45.4172 16.3108ZM42.0512 15.5802C42.7248 15.5802 43.264 15.3538 43.6689 14.8993C44.0737 14.4447 44.278 13.8816 44.278 13.208C44.278 12.5565 44.0664 11.9989 43.645 11.5333C43.2235 11.0695 42.6806 10.8358 42.0181 10.8358C41.3446 10.8358 40.8053 11.064 40.4005 11.5167C39.9938 11.9713 39.7913 12.5344 39.7913 13.208C39.7913 13.8595 40.0011 14.4189 40.4244 14.8827C40.8477 15.3483 41.3887 15.5802 42.0512 15.5802Z" fill="white"/>
<path d="M48.4463 17.4867V8.89792H50.8829V10.6278C51.4386 9.31383 52.3515 8.68444 53.6231 8.73781V11.2848H53.4943C52.6606 11.2848 52.0184 11.5388 51.5638 12.0467C51.1092 12.5546 50.8829 13.311 50.8829 14.314V17.4867H48.4463Z" fill="white"/>
<path d="M58.0436 17.6321C57.2431 17.6321 56.6247 17.437 56.1923 17.0469C55.7598 16.6568 55.5426 15.9924 55.5426 15.052V10.9812H54.5176V8.89796H55.5426V6.70245H57.9792V8.89796H59.9981V10.9812H57.9792V14.6508C57.9792 15.2066 58.2406 15.4845 58.765 15.4845C59.192 15.4845 59.5932 15.3832 59.9668 15.1808V17.1352C59.4128 17.4665 58.7706 17.6321 58.0436 17.6321Z" fill="white"/>
<path d="M11.5977 1.55875C11.5977 1.55875 8.22256 1.57531 6.39512 1.6066L6.89752 0L0 4.83821L4.63393 9.75186L5.06088 8.39739C5.13818 8.08269 5.3903 7.86737 5.705 7.86737L10.4089 7.88026C10.7254 7.88026 10.9996 7.66126 11.0677 7.35208L11.399 5.8559L16.0347 10.7622L9.13352 15.5783L9.1372 15.5654L9.90645 13.2006H9.90461H5.34613C4.25666 13.2006 3.29234 13.9018 2.95556 14.9379L0.0276048 23.9499H6.41168L7.56188 20.4092C7.65758 20.1166 7.92994 19.9178 8.23728 19.9178H11.5977C16.6678 19.9178 20.7772 15.8084 20.7772 10.7383C20.7772 5.66819 16.6678 1.55875 11.5977 1.55875Z" fill="white"/>
</svg>
