<svg width="159" height="34" viewBox="0 0 159 34" fill="none" xmlns="http://www.w3.org/2000/svg">
<path fill-rule="evenodd" clip-rule="evenodd" d="M33.2279 1.66141C33.2279 0.743848 32.484 1.90131e-05 31.5665 1.90131e-05L6.58416 0C5.49249 0 4.53727 0.158341 3.71852 0.475029C2.89976 0.816077 2.21747 1.26675 1.67163 1.82704C1.10305 2.4117 0.682301 3.06944 0.409384 3.80025C0.136463 4.55543 0 5.33497 0 6.13887V9.96835C0 11.8035 1.48766 13.2911 3.32278 13.2911H23.2595L13.2912 6.64557H31.5665C32.484 6.64557 33.2279 5.90174 33.2279 4.98418V1.66141ZM0.000159107 31.5664C0.000159107 32.484 0.743989 33.2278 1.66155 33.2278L26.6439 33.2278C27.7355 33.2278 28.6907 33.0695 29.5095 32.7528C30.3283 32.4117 31.0105 31.9611 31.5564 31.4008C32.125 30.8161 32.5457 30.1584 32.8186 29.4276C33.0916 28.6724 33.228 27.8928 33.228 27.0889V23.2595C33.228 21.4243 31.7404 19.9367 29.9052 19.9367H9.9685L19.9368 26.5822H1.66155C0.743989 26.5822 0.000159107 27.3261 0.000159107 28.2436V31.5664Z" fill="white"/>
<path d="M47.5713 24.0608C47.767 29.9553 52.574 33.5441 60.1214 33.5441C67.9082 33.5441 72.8456 29.6942 72.8456 23.604C72.8456 18.8189 70.105 16.1218 63.8191 14.7733L60.0127 13.9685C56.4021 13.142 54.8795 12.0544 54.8795 10.1186C54.8795 7.79128 57.0546 6.24698 60.2955 6.24698C63.5798 6.24698 65.9071 7.85653 66.1246 10.5101H72.2801C72.1713 4.83319 67.5819 1.07031 60.2737 1.07031C53.27 1.07031 48.2673 4.89844 48.2673 10.6841C48.2673 15.2735 51.1167 18.2099 56.9023 19.4497L60.9915 20.3414C64.7761 21.1897 66.2769 22.3208 66.2769 24.3653C66.2769 26.6709 63.8843 28.3457 60.3825 28.3457C56.9023 28.3457 54.2053 26.6491 53.9007 24.0608H47.5713Z" fill="white"/>
<path d="M83.5705 28.7807C81.4171 28.7807 79.9816 27.6932 79.9816 25.9531C79.9816 24.3001 81.3301 23.2343 83.701 23.0603L88.6166 22.7558V24.4523C88.6166 26.9754 86.3328 28.7807 83.5705 28.7807ZM81.4824 33.3701C84.397 33.3701 87.2898 31.9128 88.5949 29.4332H88.7254V33.0004H94.8591V16.9701C94.8591 12.2719 90.9657 9.18333 84.9842 9.18333C78.807 9.18333 74.9572 12.2937 74.7179 16.8178H80.5254C80.8299 15.0995 82.3307 13.925 84.7015 13.925C87.0941 13.925 88.6166 15.1865 88.6166 17.3616V18.9059L82.7439 19.2539C76.9365 19.6019 73.6739 22.0597 73.6739 26.3011C73.6739 30.499 77.0452 33.3701 81.4824 33.3701Z" fill="white"/>
<path d="M111.043 33.3701C116.916 33.3701 120.505 28.846 120.505 21.342C120.505 13.8162 116.894 9.31383 111.022 9.31383C107.694 9.31383 105.105 10.9669 103.822 13.7292H103.692V1.61408H97.3404V33.0004H103.605V28.9982H103.735C105.018 31.7171 107.628 33.3701 111.043 33.3701ZM108.847 14.4035C112 14.4035 114.001 17.1006 114.001 21.342C114.001 25.6051 112.022 28.2587 108.847 28.2587C105.758 28.2587 103.67 25.5616 103.67 21.342C103.67 17.1658 105.78 14.4035 108.847 14.4035Z" fill="white"/>
<path d="M132.491 13.8815C135.319 13.8815 137.255 15.926 137.385 18.9059H127.489C127.706 15.9913 129.707 13.8815 132.491 13.8815ZM137.472 25.8661C136.885 27.6497 135.101 28.8025 132.774 28.8025C129.533 28.8025 127.423 26.5186 127.423 23.1908V22.7993H143.497V20.8635C143.497 13.7727 139.212 9.18333 132.426 9.18333C125.531 9.18333 121.181 14.012 121.181 21.4507C121.181 28.9112 125.488 33.5006 132.665 33.5006C138.429 33.5006 142.605 30.4338 143.301 25.8661H137.472Z" fill="white"/>
<path d="M145 33.0004H151.351V19.9717C151.351 16.6873 153.178 14.7733 156.31 14.7733C157.224 14.7733 158.094 14.9255 158.616 15.143V9.55309C158.181 9.42258 157.55 9.31383 156.81 9.31383C154.07 9.31383 152.09 10.9234 151.264 13.8815H151.133V9.68359H145V33.0004Z" fill="white"/>
</svg>
