<svg width="160" height="49" viewBox="0 0 160 49" fill="none" xmlns="http://www.w3.org/2000/svg">
<g clip-path="url(#clip0_337_1084)">
<path d="M21.5001 40.1C14.1001 40.1 8.1001 34.1 8.1001 26.7C8.1001 19.5 20.2001 6.79998 20.7001 6.29998L21.3001 5.59998L21.9001 6.29998C22.4001 6.79998 34.8001 19.5 34.8001 26.7C34.9001 34.1 28.9001 40.1 21.5001 40.1ZM21.4001 8.19998C20.3001 9.39998 18.1001 11.8 15.9001 14.8C12.0001 20 9.9001 24.1 9.9001 26.7C9.9001 33.1 15.1001 38.3 21.5001 38.3C27.9001 38.3 33.1001 33.1 33.1001 26.7C33.1001 24.1 31.0001 20 27.0001 14.8C24.8001 11.9 22.5001 9.39998 21.4001 8.19998Z" fill="white"/>
<path d="M21.5 44.4001C11.7 44.4001 3.80005 36.5001 3.80005 26.7001C3.80005 17.2001 17.1 3.90005 17.7 3.30005C18.1 3.00005 18.6 3.00005 19 3.30005C19.3 3.70005 19.3 4.20005 19 4.60005C18.8 4.70005 5.60005 17.9001 5.60005 26.7001C5.60005 35.5001 12.7 42.6 21.5 42.6C30.3 42.6 37.4001 35.5001 37.4001 26.7001C37.4001 23.1001 35.1001 18.1 30.7001 12.3C27.3001 7.80005 23.9 4.40005 23.9 4.40005C23.5 4.10005 23.5 3.50005 23.9 3.10005C24.2 2.70005 24.8001 2.70005 25.2001 3.10005C25.8001 3.70005 39.3 17.2001 39.3 26.7001C39.2 36.5001 31.3 44.4001 21.5 44.4001Z" fill="white"/>
<path d="M21.5 48.7C9.7 48.7 0 39 0 27.2C0 22.3 2.5 16.3 7.3 9.29998C10.9 4.19998 14.4 0.499976 14.6 0.299976C14.9 -0.100024 15.5 -0.100024 15.9 0.299976C16.3 0.599976 16.3 1.19998 15.9 1.59998C15.9 1.59998 12.3 5.29997 8.8 10.4C4.2 17 1.8 22.8 1.8 27.3C1.8 38.2 10.7 47 21.5 47C32.3 47 41.2 38 41.2 27.2C41.2 22.7 38.8 16.9 34.2 10.3C30.7 5.29998 27.1 1.59998 27.1 1.49998C26.8 1.09998 26.8 0.599976 27.1 0.199976C27.5 -0.100024 28 -0.100024 28.4 0.199976C28.9 0.899976 43 15.5 43 27.2C43 39 33.4 48.7 21.5 48.7Z" fill="white"/>
<path d="M52.3 31.5L56.6 31.1C56.9 32.5 57.4001 33.6 58.2001 34.3C59.0001 35 60.1001 35.3 61.4001 35.3C62.8001 35.3 63.9 35 64.6 34.4C65.3 33.8 65.7 33.1 65.7 32.3C65.7 31.8 65.5 31.3 65.2 31C64.9 30.6 64.4 30.3 63.6 30.1C63.1 29.9 61.9 29.6 60.1 29.1C57.7 28.5 56.1 27.8 55.1 26.9C53.8 25.7 53.1 24.2 53.1 22.5C53.1 21.4 53.4 20.3 54 19.4C54.6 18.5 55.5001 17.7 56.7001 17.2C57.9001 16.7 59.3 16.4 61 16.4C63.8 16.4 65.8 17 67.2 18.2C68.6 19.4 69.3001 21 69.4001 23L65 23.2C64.8 22.1 64.4 21.3 63.8 20.8C63.2 20.3 62.3 20 61 20C59.7 20 58.7 20.3 58 20.8C57.5 21.1 57.3 21.6 57.3 22.2C57.3 22.7 57.5 23.2 58 23.5C58.6 24 59.9 24.5 62.1 25C64.3 25.5 65.8001 26 66.9001 26.6C67.9001 27.1 68.7001 27.9 69.3001 28.8C69.9001 29.7 70.2 30.9 70.2 32.3C70.2 33.6 69.9 34.7 69.2 35.8C68.5 36.9 67.5 37.7 66.2 38.2C64.9 38.7 63.3001 39 61.4001 39C58.6001 39 56.5 38.4 55 37.1C53.5 35.8 52.6 34 52.3 31.5Z" fill="white"/>
<path d="M73.8 38.7001V16.7001H90V20.4001H78.2V25.3001H89.2V29.0001H78.2V35.0001H90.4V38.7001H73.8Z" fill="white"/>
<path d="M94.3 38.7001V16.7001H103.6C105.9 16.7001 107.6 16.9001 108.7 17.3001C109.8 17.7001 110.6 18.4001 111.2 19.4001C111.8 20.4001 112.2 21.6001 112.2 22.9001C112.2 24.5001 111.7 25.9001 110.7 27.0001C109.7 28.1001 108.3 28.7001 106.4 29.0001C107.4 29.6001 108.1 30.2001 108.8 30.8001C109.4 31.5001 110.3 32.7001 111.3 34.4001L114 38.7001H108.7L105.5 33.9001C104.4 32.2001 103.6 31.1001 103.2 30.7001C102.8 30.3001 102.3 30.0001 101.9 29.8001C101.4 29.6001 100.7 29.6001 99.7 29.6001H98.8V38.7001H94.3V38.7001ZM98.7 26.0001H102C104.1 26.0001 105.4 25.9001 106 25.7001C106.5 25.5001 106.9 25.2001 107.2 24.8001C107.5 24.4001 107.6 23.8001 107.6 23.2001C107.6 22.5001 107.4 21.9001 107 21.4001C106.6 20.9001 106.1 20.7001 105.3 20.5001C104.9 20.5001 103.9 20.4001 102.1 20.4001H98.6L98.7 26.0001Z" fill="white"/>
<path d="M116.3 16.7001H120.7V28.6001C120.7 30.5001 120.8 31.7001 120.9 32.3001C121.1 33.2001 121.5 33.9001 122.3 34.5001C123 35.0001 124 35.3001 125.2 35.3001C126.5 35.3001 127.4 35.0001 128 34.5001C128.6 34.0001 129 33.4001 129.2 32.6001C129.3 31.9001 129.4 30.6001 129.4 28.9001V16.7001H133.8V28.2001C133.8 30.8001 133.7 32.7001 133.4 33.8001C133.2 34.9001 132.7 35.8001 132.1 36.6001C131.5 37.3001 130.6 37.9001 129.5 38.4001C128.4 38.9001 127 39.1001 125.3 39.1001C123.2 39.1001 121.6 38.9001 120.5 38.4001C119.4 37.9001 118.6 37.3001 117.9 36.5001C117.3 35.7001 116.9 34.9001 116.7 34.1001C116.4 32.8001 116.3 31.0001 116.3 28.5001V16.7001Z" fill="white"/>
<path d="M138.4 38.7001V16.7001H145L149 31.6001L152.9 16.7001H159.5V38.6001H155.4V21.4001L151.1 38.7001H146.8L142.5 21.4001V38.7001H138.4Z" fill="white"/>
</g>
<defs>
<clipPath id="clip0_337_1084">
<rect width="159.5" height="48.7" fill="white"/>
</clipPath>
</defs>
</svg>
