<svg width="1161" height="137" viewBox="0 0 1161 137" fill="none" xmlns="http://www.w3.org/2000/svg">
<path d="M28.0456 90.8477H0.369796C0.248411 98.8591 1.70503 105.778 4.73966 111.605C7.77429 117.431 11.8407 122.226 16.9389 125.989C22.1584 129.752 28.1063 132.483 34.7825 134.182C41.58 136.003 48.5597 136.913 55.7214 136.913C64.5825 136.913 72.3512 135.882 79.0273 133.818C85.8249 131.754 91.4693 128.902 95.9605 125.26C100.573 121.497 104.033 117.067 106.339 111.969C108.645 106.871 109.798 101.348 109.798 95.3997C109.798 88.1165 108.22 82.1687 105.064 77.556C102.03 72.822 98.3883 69.0591 94.1398 66.2672C89.8913 63.4754 85.5821 61.4725 81.2123 60.2587C76.9638 58.9234 73.6257 58.013 71.198 57.5275C63.0652 55.464 56.4497 53.7646 51.3515 52.4293C46.3747 51.0941 42.4297 49.7589 39.5165 48.4236C36.7246 47.0884 34.8432 45.6318 33.8721 44.0538C32.901 42.4758 32.4155 40.4122 32.4155 37.8631C32.4155 35.0713 33.0224 32.7649 34.2362 30.9442C35.4501 29.1234 36.9674 27.6061 38.7882 26.3922C40.7303 25.1784 42.8546 24.3287 45.1609 23.8431C47.4672 23.3576 49.7735 23.1148 52.0798 23.1148C55.6 23.1148 58.8167 23.4183 61.73 24.0252C64.7646 24.6321 67.4351 25.6639 69.7414 27.1205C72.0477 28.5772 73.8685 30.58 75.2037 33.1291C76.6603 35.6782 77.51 38.8949 77.7528 42.7792H105.429C105.429 35.2533 103.972 28.8806 101.059 23.6611C98.2669 18.3201 94.4432 13.9503 89.5878 10.5515C84.7324 7.15269 79.1487 4.72499 72.8367 3.26837C66.6461 1.69037 60.152 0.901367 53.3544 0.901367C47.5279 0.901367 41.7014 1.69037 35.8749 3.26837C30.0485 4.84637 24.8289 7.27408 20.2163 10.5515C15.6036 13.8289 11.8407 17.956 8.92744 22.9328C6.13559 27.7882 4.73966 33.5539 4.73966 40.2301C4.73966 46.178 5.83212 51.2762 8.01706 55.5247C10.3234 59.6517 13.2973 63.1112 16.9389 65.9031C20.5804 68.6949 24.7075 71.0012 29.3201 72.822C33.9328 74.5214 38.6668 75.978 43.5222 77.1919C48.2562 78.5271 52.9295 79.741 57.5422 80.8334C62.1548 81.9259 66.2819 83.2004 69.9235 84.6571C73.565 86.1137 76.4782 87.9345 78.6632 90.1194C80.9695 92.3043 82.1227 95.1569 82.1227 98.677C82.1227 101.954 81.273 104.686 79.5736 106.871C77.8742 108.934 75.7499 110.573 73.2009 111.787C70.6518 113 67.9206 113.85 65.0074 114.336C62.0941 114.7 59.3629 114.882 56.8139 114.882C53.0509 114.882 49.4094 114.457 45.8892 113.607C42.369 112.636 39.2737 111.24 36.6032 109.42C34.0542 107.477 31.9906 104.989 30.4126 101.954C28.8346 98.9198 28.0456 95.2176 28.0456 90.8477Z" fill="white"/>
<path d="M123.166 3.99668V134H151.752V77.9202H204.372V134H232.958V3.99668H204.372V53.886H151.752V3.99668H123.166Z" fill="white"/>
<path d="M254.482 3.99668V134H283.068V3.99668H254.482Z" fill="white"/>
<path d="M333.125 65.1748V26.2102H355.339C358.616 26.2102 361.772 26.4529 364.807 26.9385C367.841 27.424 370.512 28.3951 372.818 29.8517C375.124 31.1869 376.945 33.1291 378.28 35.6782C379.737 38.2273 380.465 41.5654 380.465 45.6925C380.465 49.8195 379.737 53.1576 378.28 55.7067C376.945 58.2558 375.124 60.2587 372.818 61.7153C370.512 63.0505 367.841 63.9609 364.807 64.4465C361.772 64.932 358.616 65.1748 355.339 65.1748H333.125ZM304.539 3.99668V134H333.125V87.3882H363.168C371.301 87.3882 378.22 86.2351 383.925 83.9288C389.63 81.5011 394.243 78.345 397.763 74.4607C401.404 70.5764 404.014 66.1458 405.592 61.1691C407.291 56.0709 408.141 50.912 408.141 45.6925C408.141 40.3515 407.291 35.1926 405.592 30.2159C404.014 25.2391 401.404 20.8085 397.763 16.9242C394.243 13.0399 389.63 9.94456 383.925 7.63824C378.22 5.21053 371.301 3.99668 363.168 3.99668H304.539Z" fill="white"/>
<path d="M388.164 105.96V134H416.75V105.96H388.164Z" fill="white"/>
<path d="M523.506 47.6953H551.182C550.332 40.1694 548.268 33.4933 544.991 27.6668C541.714 21.8403 537.526 16.9849 532.428 13.1006C527.451 9.09486 521.746 6.06023 515.312 3.99668C509 1.93314 502.263 0.901367 495.102 0.901367C485.148 0.901367 476.166 2.66145 468.154 6.18162C460.264 9.70178 453.588 14.5572 448.126 20.7478C442.663 26.9385 438.476 34.2216 435.562 42.5971C432.649 50.8513 431.192 59.8338 431.192 69.5446C431.192 79.0127 432.649 87.8738 435.562 96.128C438.476 104.261 442.663 111.362 448.126 117.431C453.588 123.5 460.264 128.295 468.154 131.815C476.166 135.214 485.148 136.913 495.102 136.913C503.113 136.913 510.457 135.7 517.133 133.272C523.809 130.844 529.636 127.324 534.613 122.711C539.589 118.099 543.595 112.515 546.63 105.96C549.664 99.4054 551.546 92.0616 552.274 83.9288H524.598C523.506 92.6685 520.471 99.7088 515.494 105.05C510.639 110.391 503.841 113.061 495.102 113.061C488.668 113.061 483.206 111.847 478.715 109.42C474.223 106.871 470.582 103.532 467.79 99.4054C464.998 95.2783 462.935 90.6656 461.599 85.5675C460.386 80.3479 459.779 75.007 459.779 69.5446C459.779 63.8395 460.386 58.3165 461.599 52.9756C462.935 47.6346 464.998 42.9006 467.79 38.7735C470.582 34.525 474.223 31.1869 478.715 28.7592C483.206 26.2102 488.668 24.9356 495.102 24.9356C498.622 24.9356 501.96 25.5425 505.116 26.7564C508.393 27.8488 511.307 29.4269 513.856 31.4904C516.405 33.554 518.529 35.9817 520.228 38.7735C521.928 41.444 523.02 44.4179 523.506 47.6953Z" fill="white"/>
<path d="M600.927 83.7467L617.86 36.0423H618.225L634.612 83.7467H600.927ZM603.658 3.99668L554.497 134H583.266L593.462 105.05H642.077L651.909 134H681.588L632.973 3.99668H603.658Z" fill="white"/>
<path d="M717.743 65.1748V26.2102H739.956C743.234 26.2102 746.39 26.4529 749.424 26.9385C752.459 27.424 755.129 28.3951 757.436 29.8517C759.742 31.1869 761.563 33.1291 762.898 35.6782C764.355 38.2273 765.083 41.5654 765.083 45.6925C765.083 49.8195 764.355 53.1576 762.898 55.7067C761.563 58.2558 759.742 60.2587 757.436 61.7153C755.129 63.0505 752.459 63.9609 749.424 64.4465C746.39 64.932 743.234 65.1748 739.956 65.1748H717.743ZM689.157 3.99668V134H717.743V87.3882H747.786C755.918 87.3882 762.837 86.2351 768.543 83.9288C774.248 81.5011 778.86 78.345 782.38 74.4607C786.022 70.5764 788.632 66.1458 790.21 61.1691C791.909 56.0709 792.759 50.912 792.759 45.6925C792.759 40.3515 791.909 35.1926 790.21 30.2159C788.632 25.2391 786.022 20.8085 782.38 16.9242C778.86 13.0399 774.248 9.94456 768.543 7.63824C762.837 5.21053 755.918 3.99668 747.786 3.99668H689.157Z" fill="white"/>
<path d="M806.959 3.99668V134H835.546V3.99668H806.959Z" fill="white"/>
<path d="M885.785 28.0309V134H914.371V28.0309H953.336V3.99668H846.82V28.0309H885.785Z" fill="white"/>
<path d="M980.744 83.7467L997.677 36.0423H998.041L1014.43 83.7467H980.744ZM983.475 3.99668L934.314 134H963.082L973.279 105.05H1021.89L1031.73 134H1061.4L1012.79 3.99668H983.475Z" fill="white"/>
<path d="M1068.97 3.99668V134H1160.92V109.966H1097.56V3.99668H1068.97Z" fill="white"/>
</svg>
