<svg width="576" height="326" viewBox="0 0 576 326" fill="none" xmlns="http://www.w3.org/2000/svg">
    <path
        d="M363.659 138.569C363.083 137.2 362.117 136.029 360.882 135.203C359.646 134.376 358.196 133.93 356.709 133.919H217.984C215.99 133.921 214.078 134.713 212.668 136.123C211.258 137.533 210.466 139.445 210.464 141.439V316.939C210.466 318.934 211.258 320.846 212.668 322.256C214.078 323.666 215.99 324.458 217.984 324.46H356.714C358.708 324.457 360.619 323.664 362.029 322.254C363.439 320.844 364.232 318.933 364.234 316.939V141.439C364.238 140.454 364.044 139.479 363.664 138.569H363.659ZM362.559 316.939C362.558 318.49 361.941 319.977 360.844 321.074C359.747 322.171 358.26 322.788 356.709 322.79H217.984C216.433 322.789 214.946 322.173 213.849 321.076C212.752 319.979 212.135 318.492 212.134 316.941V141.44C212.137 139.89 212.754 138.403 213.85 137.306C214.947 136.21 216.434 135.593 217.984 135.59H356.714C357.883 135.595 359.023 135.947 359.99 136.603C360.958 137.258 361.707 138.187 362.144 139.271C362.23 139.486 362.303 139.707 362.364 139.93C362.497 140.423 362.564 140.931 362.564 141.44L362.559 316.939Z"
        fill="#3F3D56" />
    <path
        d="M334.709 175.355H292.924C292.037 175.355 291.187 175.002 290.56 174.375C289.933 173.748 289.581 172.898 289.581 172.012C289.581 171.125 289.933 170.275 290.56 169.648C291.187 169.021 292.037 168.669 292.924 168.669H334.709C335.596 168.669 336.446 169.021 337.073 169.648C337.7 170.275 338.052 171.125 338.052 172.012C338.052 172.898 337.7 173.748 337.073 174.375C336.446 175.002 335.596 175.355 334.709 175.355V175.355Z"
        fill="#3F3D56" />
    <path
        d="M334.709 192.905H292.924C292.037 192.905 291.187 192.552 290.56 191.925C289.933 191.298 289.581 190.448 289.581 189.562C289.581 188.675 289.933 187.825 290.56 187.198C291.187 186.571 292.037 186.219 292.924 186.219H334.709C335.596 186.219 336.446 186.571 337.073 187.198C337.7 187.825 338.052 188.675 338.052 189.562C338.052 190.448 337.7 191.298 337.073 191.925C336.446 192.552 335.596 192.905 334.709 192.905V192.905Z"
        fill="#3F3D56" />
    <path
        d="M271.484 202.898H240.946C239.949 202.896 238.993 202.5 238.288 201.795C237.583 201.09 237.187 200.134 237.186 199.137V163.101C237.187 162.103 237.583 161.147 238.288 160.442C238.993 159.737 239.949 159.341 240.946 159.34H271.484C272.481 159.341 273.437 159.737 274.142 160.442C274.847 161.147 275.243 162.103 275.244 163.101V199.137C275.243 200.134 274.847 201.09 274.142 201.795C273.437 202.5 272.481 202.896 271.484 202.898Z"
        fill="#00D18C" />
    <path
        d="M334.419 228.841H239.984C239.097 228.841 238.247 228.488 237.62 227.861C236.993 227.234 236.64 226.384 236.64 225.498C236.64 224.611 236.993 223.761 237.62 223.134C238.247 222.507 239.097 222.155 239.984 222.155H334.419C334.858 222.155 335.293 222.241 335.699 222.409C336.104 222.577 336.473 222.823 336.783 223.134C337.094 223.444 337.34 223.813 337.508 224.218C337.676 224.624 337.762 225.059 337.762 225.498C337.762 225.937 337.676 226.371 337.508 226.777C337.34 227.182 337.094 227.551 336.783 227.861C336.473 228.172 336.104 228.418 335.699 228.586C335.293 228.754 334.858 228.841 334.419 228.841V228.841Z"
        fill="#CCCCCC" />
    <path
        d="M334.419 246.391H239.984C239.097 246.391 238.247 246.038 237.62 245.411C236.993 244.784 236.64 243.934 236.64 243.048C236.64 242.161 236.993 241.311 237.62 240.684C238.247 240.057 239.097 239.705 239.984 239.705H334.419C335.306 239.705 336.156 240.057 336.783 240.684C337.41 241.311 337.762 242.161 337.762 243.048C337.762 243.934 337.41 244.784 336.783 245.411C336.156 246.038 335.306 246.391 334.419 246.391V246.391Z"
        fill="#CCCCCC" />
    <path
        d="M334.419 263.941H239.984C239.097 263.941 238.247 263.588 237.62 262.961C236.993 262.334 236.64 261.484 236.64 260.598C236.64 259.711 236.993 258.861 237.62 258.234C238.247 257.607 239.097 257.255 239.984 257.255H334.419C335.306 257.255 336.156 257.607 336.783 258.234C337.41 258.861 337.762 259.711 337.762 260.598C337.762 261.484 337.41 262.334 336.783 262.961C336.156 263.588 335.306 263.941 334.419 263.941V263.941Z"
        fill="#CCCCCC" />
    <path
        d="M334.419 281.491H239.984C239.097 281.491 238.247 281.138 237.62 280.511C236.993 279.884 236.64 279.034 236.64 278.148C236.64 277.261 236.993 276.411 237.62 275.784C238.247 275.157 239.097 274.805 239.984 274.805H334.419C335.306 274.805 336.156 275.157 336.783 275.784C337.41 276.411 337.762 277.261 337.762 278.148C337.762 279.034 337.41 279.884 336.783 280.511C336.156 281.138 335.306 281.491 334.419 281.491V281.491Z"
        fill="#CCCCCC" />
    <path
        d="M334.419 299.041H239.984C239.097 299.041 238.247 298.688 237.62 298.061C236.993 297.434 236.64 296.584 236.64 295.698C236.64 294.811 236.993 293.961 237.62 293.334C238.247 292.707 239.097 292.355 239.984 292.355H334.419C335.306 292.355 336.156 292.707 336.783 293.334C337.41 293.961 337.762 294.811 337.762 295.698C337.762 296.584 337.41 297.434 336.783 298.061C336.156 298.688 335.306 299.041 334.419 299.041V299.041Z"
        fill="#CCCCCC" />
    <path
        d="M289.697 91.6345C307.514 91.6345 321.958 77.1903 321.958 59.3725C321.958 41.5547 307.514 27.1105 289.697 27.1105C271.879 27.1105 257.434 41.5547 257.434 59.3725C257.434 77.1903 271.879 91.6345 289.697 91.6345Z"
        fill="#00D18C" />
    <path
        d="M286.5 71.6795C285.774 71.6808 285.067 71.4459 284.487 71.0105L284.451 70.9835L276.869 65.1835C276.517 64.9145 276.222 64.5788 276 64.1956C275.778 63.8124 275.634 63.3893 275.576 62.9503C275.517 62.5114 275.546 62.0653 275.66 61.6375C275.775 61.2098 275.972 60.8087 276.242 60.4573C276.511 60.1059 276.847 59.8111 277.23 59.5896C277.614 59.3682 278.037 59.2245 278.476 59.1667C278.915 59.109 279.361 59.1383 279.789 59.2531C280.217 59.3678 280.617 59.5657 280.969 59.8355L285.879 63.6015L297.485 48.4615C298.028 47.7526 298.831 47.2887 299.716 47.1717C300.602 47.0547 301.498 47.2943 302.207 47.8378L302.208 47.8385L302.136 47.9385L302.21 47.8385C302.918 48.3828 303.381 49.1857 303.498 50.0712C303.615 50.9567 303.375 51.8523 302.833 52.5615L289.183 70.3615C288.867 70.7717 288.461 71.1035 287.996 71.3314C287.531 71.5593 287.02 71.677 286.503 71.6755L286.5 71.6795Z"
        fill="white" />
    <path
        d="M77.2965 44.6345C89.3706 44.6345 99.1585 34.8466 99.1585 22.7725C99.1585 10.6985 89.3706 0.910522 77.2965 0.910522C65.2225 0.910522 55.4345 10.6985 55.4345 22.7725C55.4345 34.8466 65.2225 44.6345 77.2965 44.6345Z"
        fill="#CCCCCC" />
    <path
        d="M75.1295 31.1115C74.6377 31.1124 74.159 30.9534 73.7655 30.6585L73.7415 30.6405L68.6035 26.7065C68.1368 26.3336 67.8349 25.7926 67.7626 25.1997C67.6902 24.6067 67.8531 24.009 68.2164 23.5348C68.5796 23.0606 69.1143 22.7476 69.7056 22.663C70.297 22.5785 70.8979 22.7291 71.3795 23.0825L74.7075 25.6345L82.5715 15.3785C82.9398 14.8982 83.4837 14.5839 84.0837 14.5047C84.6838 14.4255 85.2907 14.5878 85.7709 14.9561L85.7715 14.9565L85.7225 15.0225L85.7725 14.9575C86.2522 15.3264 86.566 15.8704 86.6452 16.4703C86.7243 17.0702 86.5622 17.677 86.1945 18.1576L76.9445 30.2215C76.7306 30.4996 76.4555 30.7246 76.1406 30.8791C75.8256 31.0337 75.4793 31.1135 75.1285 31.1125L75.1295 31.1115Z"
        fill="white" />
    <path
        d="M138.731 74.0325C138.277 72.955 137.518 72.0341 136.546 71.3838C135.574 70.7335 134.433 70.3823 133.264 70.3735H24.1025C22.5335 70.3743 21.0289 70.998 19.9194 72.1075C18.8099 73.2169 18.1863 74.7215 18.1855 76.2905V214.384C18.1863 215.953 18.8099 217.457 19.9194 218.567C21.0289 219.676 22.5335 220.3 24.1025 220.301H133.264C134.832 220.298 136.336 219.674 137.445 218.565C138.554 217.456 139.178 215.952 139.18 214.384V76.2905C139.183 75.5154 139.03 74.7477 138.731 74.0325ZM137.867 214.385C137.864 215.604 137.379 216.772 136.517 217.635C135.654 218.497 134.486 218.982 133.266 218.985H24.1025C22.8825 218.985 21.7125 218.5 20.8498 217.637C19.9871 216.775 19.5025 215.605 19.5025 214.385V76.2905C19.5049 75.0713 19.9903 73.9026 20.8524 73.0405C21.7146 72.1783 22.8832 71.6929 24.1025 71.6905H133.264C134.183 71.6943 135.081 71.9722 135.842 72.4888C136.603 73.0053 137.193 73.7371 137.536 74.5905C137.603 74.7603 137.661 74.9336 137.709 75.1095C137.814 75.4968 137.867 75.8963 137.868 76.2975L137.867 214.385Z"
        fill="#CCCCCC" />
    <path
        d="M115.948 102.978H83.0685C82.3709 102.978 81.7018 102.7 81.2085 102.207C80.7152 101.714 80.438 101.045 80.438 100.347C80.438 99.6494 80.7152 98.9803 81.2085 98.487C81.7018 97.9937 82.3709 97.7166 83.0685 97.7166H115.948C116.645 97.7166 117.314 97.9937 117.808 98.487C118.301 98.9803 118.578 99.6494 118.578 100.347C118.578 101.045 118.301 101.714 117.808 102.207C117.314 102.7 116.645 102.978 115.948 102.978H115.948Z"
        fill="#CCCCCC" />
    <path
        d="M115.948 116.788H83.0685C82.3709 116.788 81.7018 116.51 81.2085 116.017C80.7152 115.524 80.438 114.855 80.438 114.157C80.438 113.459 80.7152 112.79 81.2085 112.297C81.7018 111.804 82.3709 111.526 83.0685 111.526H115.948C116.645 111.526 117.314 111.804 117.808 112.297C118.301 112.79 118.578 113.459 118.578 114.157C118.578 114.855 118.301 115.524 117.808 116.017C117.314 116.51 116.645 116.788 115.948 116.788H115.948Z"
        fill="#CCCCCC" />
    <path
        d="M66.1975 124.651H42.1695C41.385 124.65 40.6328 124.338 40.078 123.783C39.5233 123.228 39.2113 122.476 39.2105 121.691V93.3365C39.2113 92.552 39.5233 91.7998 40.078 91.2451C40.6328 90.6903 41.385 90.3783 42.1695 90.3775H66.1975C66.982 90.3786 67.734 90.6906 68.2887 91.2453C68.8434 91.8 69.1555 92.5521 69.1565 93.3365V121.691C69.1557 122.476 68.8437 123.228 68.289 123.783C67.7342 124.338 66.982 124.65 66.1975 124.651V124.651Z"
        fill="#CCCCCC" />
    <path
        d="M115.719 145.064H41.4125C40.7148 145.064 40.0458 144.786 39.5524 144.293C39.0591 143.8 38.782 143.131 38.782 142.433C38.782 141.735 39.0591 141.066 39.5524 140.573C40.0458 140.08 40.7148 139.802 41.4125 139.802H115.719C116.417 139.802 117.086 140.08 117.58 140.573C118.073 141.066 118.35 141.735 118.35 142.433C118.35 143.131 118.073 143.8 117.58 144.293C117.086 144.786 116.417 145.064 115.719 145.064V145.064Z"
        fill="#CCCCCC" />
    <path
        d="M115.719 158.878H41.4125C40.7148 158.878 40.0458 158.6 39.5524 158.107C39.0591 157.614 38.782 156.945 38.782 156.247C38.782 155.549 39.0591 154.88 39.5524 154.387C40.0458 153.894 40.7148 153.617 41.4125 153.617H115.719C116.417 153.617 117.086 153.894 117.58 154.387C118.073 154.88 118.35 155.549 118.35 156.247C118.35 156.945 118.073 157.614 117.58 158.107C117.086 158.6 116.417 158.878 115.719 158.878Z"
        fill="#CCCCCC" />
    <path
        d="M115.719 172.682H41.4125C40.7148 172.682 40.0458 172.405 39.5524 171.912C39.0591 171.419 38.782 170.75 38.782 170.052C38.782 169.354 39.0591 168.685 39.5524 168.192C40.0458 167.699 40.7148 167.422 41.4125 167.422H115.719C116.417 167.422 117.086 167.699 117.58 168.192C118.073 168.685 118.35 169.354 118.35 170.052C118.35 170.75 118.073 171.419 117.58 171.912C117.086 172.405 116.417 172.682 115.719 172.682V172.682Z"
        fill="#CCCCCC" />
    <path
        d="M115.719 186.495H41.4125C40.7148 186.495 40.0458 186.218 39.5524 185.725C39.0591 185.232 38.782 184.563 38.782 183.865C38.782 183.167 39.0591 182.498 39.5524 182.005C40.0458 181.512 40.7148 181.234 41.4125 181.234H115.719C116.417 181.234 117.086 181.512 117.58 182.005C118.073 182.498 118.35 183.167 118.35 183.865C118.35 184.563 118.073 185.232 117.58 185.725C117.086 186.218 116.417 186.495 115.719 186.495Z"
        fill="#CCCCCC" />
    <path
        d="M115.719 200.302H41.4125C40.7148 200.302 40.0458 200.024 39.5524 199.531C39.0591 199.038 38.782 198.369 38.782 197.671C38.782 196.973 39.0591 196.304 39.5524 195.811C40.0458 195.318 40.7148 195.041 41.4125 195.041H115.719C116.417 195.041 117.086 195.318 117.58 195.811C118.073 196.304 118.35 196.973 118.35 197.671C118.35 198.369 118.073 199.038 117.58 199.531C117.086 200.024 116.417 200.302 115.719 200.302Z"
        fill="#CCCCCC" />
    <path
        d="M0.791486 220.877H154.225C154.434 220.877 154.634 220.795 154.782 220.647C154.93 220.499 155.012 220.299 155.012 220.09C155.012 219.882 154.93 219.682 154.782 219.534C154.634 219.386 154.434 219.303 154.225 219.303H0.791486C0.688136 219.303 0.58568 219.323 0.489972 219.362C0.394265 219.401 0.307181 219.458 0.233686 219.531C0.160191 219.604 0.101736 219.69 0.0616429 219.785C0.0215502 219.88 0.000599704 219.983 1.26948e-05 220.086C-0.000574314 220.189 0.0192016 220.292 0.0582097 220.388C0.0972179 220.483 0.154704 220.57 0.227369 220.644C0.300033 220.717 0.386459 220.776 0.481717 220.816C0.576976 220.856 0.679194 220.877 0.782544 220.877H0.791486Z"
        fill="#CCCCCC" />
    <path
        d="M497.296 44.6345C509.371 44.6345 519.159 34.8466 519.159 22.7725C519.159 10.6985 509.371 0.910522 497.296 0.910522C485.222 0.910522 475.434 10.6985 475.434 22.7725C475.434 34.8466 485.222 44.6345 497.296 44.6345Z"
        fill="#CCCCCC" />
    <path
        d="M495.129 31.1115C494.638 31.1124 494.159 30.9534 493.765 30.6585L493.741 30.6405L488.603 26.7065C488.137 26.3336 487.835 25.7926 487.763 25.1997C487.69 24.6067 487.853 24.009 488.216 23.5348C488.58 23.0606 489.114 22.7476 489.706 22.663C490.297 22.5785 490.898 22.7291 491.379 23.0825L494.707 25.6345L502.571 15.3785C502.94 14.8982 503.484 14.5839 504.084 14.5047C504.684 14.4255 505.291 14.5878 505.771 14.9561L505.771 14.9565L505.722 15.0225L505.772 14.9575C506.252 15.3264 506.566 15.8704 506.645 16.4703C506.724 17.0702 506.562 17.677 506.194 18.1576L496.944 30.2215C496.731 30.4996 496.455 30.7246 496.141 30.8791C495.826 31.0337 495.479 31.1135 495.128 31.1125L495.129 31.1115Z"
        fill="white" />
    <path
        d="M558.731 74.0325C558.277 72.955 557.518 72.0341 556.546 71.3838C555.574 70.7335 554.433 70.3823 553.263 70.3735H444.102C442.533 70.3743 441.029 70.998 439.919 72.1075C438.81 73.2169 438.186 74.7215 438.185 76.2905V214.384C438.186 215.953 438.81 217.457 439.919 218.567C441.029 219.676 442.533 220.3 444.102 220.301H553.263C554.832 220.298 556.336 219.674 557.445 218.565C558.554 217.456 559.178 215.952 559.18 214.384V76.2905C559.183 75.5154 559.03 74.7477 558.731 74.0325ZM557.866 214.385C557.864 215.604 557.379 216.772 556.517 217.635C555.654 218.497 554.486 218.982 553.266 218.985H444.102C443.498 218.985 442.9 218.866 442.342 218.634C441.784 218.403 441.277 218.064 440.85 217.637C440.423 217.21 440.084 216.703 439.853 216.145C439.621 215.587 439.502 214.989 439.502 214.385V214.385V76.2905C439.505 75.0713 439.99 73.9026 440.852 73.0405C441.715 72.1783 442.883 71.6929 444.102 71.6905H553.263C554.183 71.6943 555.081 71.9722 555.842 72.4888C556.603 73.0053 557.193 73.7371 557.536 74.5905C557.603 74.7603 557.661 74.9336 557.71 75.1095C557.814 75.4968 557.867 75.8963 557.867 76.2975L557.866 214.385Z"
        fill="#CCCCCC" />
    <path
        d="M535.949 102.978H503.069C502.371 102.978 501.702 102.7 501.208 102.207C500.715 101.714 500.438 101.045 500.438 100.347C500.438 99.6494 500.715 98.9803 501.208 98.487C501.702 97.9937 502.371 97.7166 503.069 97.7166H535.947C536.645 97.7166 537.314 97.9937 537.808 98.487C538.301 98.9803 538.578 99.6494 538.578 100.347C538.578 101.045 538.301 101.714 537.808 102.207C537.314 102.7 536.645 102.978 535.947 102.978H535.949Z"
        fill="#CCCCCC" />
    <path
        d="M535.949 116.788H503.069C502.371 116.788 501.702 116.51 501.208 116.017C500.715 115.524 500.438 114.855 500.438 114.157C500.438 113.459 500.715 112.79 501.208 112.297C501.702 111.804 502.371 111.526 503.069 111.526H535.947C536.645 111.526 537.314 111.804 537.808 112.297C538.301 112.79 538.578 113.459 538.578 114.157C538.578 114.855 538.301 115.524 537.808 116.017C537.314 116.51 536.645 116.788 535.947 116.788H535.949Z"
        fill="#CCCCCC" />
    <path
        d="M486.197 124.651H462.169C461.385 124.65 460.633 124.338 460.078 123.783C459.523 123.228 459.211 122.476 459.21 121.691V93.3365C459.211 92.552 459.523 91.7998 460.078 91.2451C460.633 90.6903 461.385 90.3783 462.169 90.3775H486.197C486.982 90.3786 487.734 90.6906 488.289 91.2453C488.843 91.8 489.155 92.5521 489.156 93.3365V121.691C489.156 122.476 488.844 123.228 488.289 123.783C487.734 124.338 486.982 124.65 486.197 124.651V124.651Z"
        fill="#CCCCCC" />
    <path
        d="M535.72 145.064H461.413C460.715 145.064 460.046 144.786 459.552 144.293C459.059 143.8 458.782 143.131 458.782 142.433C458.782 141.735 459.059 141.066 459.552 140.573C460.046 140.08 460.715 139.802 461.413 139.802H535.72C536.417 139.802 537.086 140.08 537.58 140.573C538.073 141.066 538.35 141.735 538.35 142.433C538.35 143.131 538.073 143.8 537.58 144.293C537.086 144.786 536.417 145.064 535.72 145.064V145.064Z"
        fill="#CCCCCC" />
    <path
        d="M535.72 158.878H461.413C460.715 158.878 460.046 158.6 459.552 158.107C459.059 157.614 458.782 156.945 458.782 156.247C458.782 155.549 459.059 154.88 459.552 154.387C460.046 153.894 460.715 153.617 461.413 153.617H535.72C536.417 153.617 537.086 153.894 537.58 154.387C538.073 154.88 538.35 155.549 538.35 156.247C538.35 156.945 538.073 157.614 537.58 158.107C537.086 158.6 536.417 158.878 535.72 158.878Z"
        fill="#CCCCCC" />
    <path
        d="M535.72 172.682H461.413C460.715 172.682 460.046 172.405 459.552 171.912C459.059 171.419 458.782 170.75 458.782 170.052C458.782 169.354 459.059 168.685 459.552 168.192C460.046 167.699 460.715 167.422 461.413 167.422H535.72C536.417 167.422 537.086 167.699 537.58 168.192C538.073 168.685 538.35 169.354 538.35 170.052C538.35 170.75 538.073 171.419 537.58 171.912C537.086 172.405 536.417 172.682 535.72 172.682V172.682Z"
        fill="#CCCCCC" />
    <path
        d="M535.72 186.495H461.413C460.715 186.495 460.046 186.218 459.552 185.725C459.059 185.232 458.782 184.563 458.782 183.865C458.782 183.167 459.059 182.498 459.552 182.005C460.046 181.512 460.715 181.234 461.413 181.234H535.72C536.417 181.234 537.086 181.512 537.58 182.005C538.073 182.498 538.35 183.167 538.35 183.865C538.35 184.563 538.073 185.232 537.58 185.725C537.086 186.218 536.417 186.495 535.72 186.495Z"
        fill="#CCCCCC" />
    <path
        d="M535.72 200.302H461.413C460.715 200.302 460.046 200.024 459.552 199.531C459.059 199.038 458.782 198.369 458.782 197.671C458.782 196.973 459.059 196.304 459.552 195.811C460.046 195.318 460.715 195.041 461.413 195.041H535.72C536.417 195.041 537.086 195.318 537.58 195.811C538.073 196.304 538.35 196.973 538.35 197.671C538.35 198.369 538.073 199.038 537.58 199.531C537.086 200.024 536.417 200.302 535.72 200.302Z"
        fill="#CCCCCC" />
    <path
        d="M420.791 220.877H574.226C574.434 220.877 574.634 220.795 574.782 220.647C574.93 220.499 575.012 220.299 575.012 220.09C575.012 219.882 574.93 219.682 574.782 219.534C574.634 219.386 574.434 219.303 574.226 219.303H420.791C420.688 219.303 420.586 219.323 420.49 219.362C420.394 219.401 420.307 219.458 420.234 219.531C420.16 219.604 420.102 219.69 420.062 219.785C420.022 219.88 420.001 219.983 420 220.086C419.999 220.189 420.019 220.292 420.058 220.388C420.097 220.483 420.155 220.57 420.227 220.644C420.3 220.717 420.386 220.776 420.482 220.816C420.577 220.856 420.679 220.877 420.783 220.877H420.791Z"
        fill="#CCCCCC" />
    <path
        d="M189.005 325.059H384.005C384.27 325.059 384.524 324.954 384.712 324.766C384.899 324.578 385.005 324.324 385.005 324.059C385.005 323.794 384.899 323.539 384.712 323.352C384.524 323.164 384.27 323.059 384.005 323.059H189.005C188.739 323.059 188.485 323.164 188.297 323.352C188.11 323.539 188.005 323.794 188.005 324.059C188.005 324.324 188.11 324.578 188.297 324.766C188.485 324.954 188.739 325.059 189.005 325.059Z"
        fill="#3F3D56" />
</svg>