<svg width="94" height="12" viewBox="0 0 94 12" fill="none" xmlns="http://www.w3.org/2000/svg">
    <g clip-path="url(#clip0_130:319)">
        <path
            d="M27.7174 4.87199H20.8652V2.61599H29.4914V0.359985H20.8494C20.2492 0.359985 19.6736 0.596019 19.2492 1.01616C18.8249 1.43631 18.5864 2.00615 18.5864 2.60032V4.88765C18.5864 5.48182 18.8249 6.05166 19.2492 6.47181C19.6736 6.89195 20.2492 7.12799 20.8494 7.12799H27.7016V9.38399H18.7494V11.64H27.7174C28.3176 11.64 28.8932 11.404 29.3175 10.9838C29.7419 10.5637 29.9804 9.99382 29.9804 9.39965V7.11232C29.9804 6.51815 29.7419 5.94831 29.3175 5.52816C28.8932 5.10802 28.3176 4.87199 27.7174 4.87199Z"
            fill="black" />
        <path
            d="M40.9865 0.359985H34.1091C33.8119 0.359985 33.5178 0.417945 33.2433 0.530551C32.9689 0.643158 32.7195 0.808204 32.5095 1.01626C32.2995 1.22431 32.133 1.4713 32.0194 1.7431C31.9058 2.0149 31.8475 2.30618 31.8477 2.60032V9.39965C31.8475 9.69379 31.9058 9.98507 32.0194 10.2569C32.133 10.5287 32.2995 10.7757 32.5095 10.9837C32.7195 11.1918 32.9689 11.3568 33.2433 11.4694C33.5178 11.582 33.8119 11.64 34.1091 11.64H40.9865C41.5867 11.64 42.1624 11.404 42.5867 10.9838C43.0111 10.5637 43.2495 9.99382 43.2495 9.39965V2.60032C43.2495 2.00615 43.0111 1.43631 42.5867 1.01616C42.1624 0.596019 41.5867 0.359985 40.9865 0.359985ZM40.9708 9.38399H34.1344V2.61599H40.9708V9.38399Z"
            fill="black" />
        <path
            d="M65.0564 0.359986H58.3499C57.7497 0.359986 57.1741 0.596021 56.7497 1.01616C56.3254 1.43631 56.0869 2.00615 56.0869 2.60032V11.64H58.3657V7.93325H65.0406V11.64H67.3194V2.60032C67.3197 2.30606 67.2613 2.01464 67.1476 1.74274C67.034 1.47083 66.8672 1.22378 66.657 1.0157C66.447 0.80763 66.1974 0.642616 65.9227 0.530102C65.6481 0.417587 65.3537 0.35978 65.0564 0.359986ZM65.0406 5.67725H58.3657V2.61599H65.0406V5.67725Z"
            fill="black" />
        <path
            d="M91.7369 0.35999H85.0319C84.7344 0.359372 84.4395 0.416864 84.1644 0.529175C83.8893 0.641485 83.6394 0.806409 83.4287 1.01451C83.218 1.2226 83.0509 1.46978 82.937 1.7419C82.8229 2.01401 82.7642 2.30573 82.7642 2.60032V11.64H85.043V7.93326H91.7211V11.64H93.9999V2.60032C93.9999 2.00615 93.7615 1.43631 93.3371 1.01617C92.9127 0.596025 92.3371 0.35999 91.7369 0.35999ZM91.7211 5.67726H85.0477V2.61599H91.7211V5.67726Z"
            fill="black" />
        <path
            d="M78.4613 9.38399H77.5498L74.2836 1.29999C74.1719 1.02262 73.9787 0.784789 73.7291 0.617222C73.4793 0.449656 73.1846 0.360052 72.8831 0.359985H70.8543C70.4544 0.359985 70.0708 0.517286 69.7879 0.797285C69.5051 1.07728 69.3462 1.45704 69.3462 1.85302V11.64H71.625V2.61599H72.5365L75.8012 10.7C75.9124 10.9774 76.1053 11.2152 76.3546 11.3828C76.6041 11.5505 76.8986 11.64 77.2001 11.64H79.2289C79.6289 11.64 80.0125 11.4827 80.2953 11.2027C80.5781 10.9227 80.7369 10.5429 80.7369 10.1469V0.359985H78.4581L78.4613 9.38399Z"
            fill="black" />
        <path
            d="M47.5473 0.359985H45.2686V9.39965C45.2686 9.99382 45.507 10.5637 45.9314 10.9838C46.3558 11.404 46.9314 11.64 47.5316 11.64H54.3837V9.38399H47.5473V0.359985Z"
            fill="black" />
        <path fill-rule="evenodd" clip-rule="evenodd"
            d="M2.41173 8.96099C2.4522 8.9176 2.50108 8.88275 2.55546 8.85853C2.60985 8.83431 2.66861 8.8212 2.72824 8.81999H12.6726C12.7147 8.82057 12.7556 8.83318 12.7907 8.85629C12.8257 8.87941 12.8532 8.91205 12.8699 8.95027C12.8867 8.9885 12.8919 9.0307 12.8849 9.07179C12.878 9.11288 12.8593 9.15111 12.8309 9.18189L10.723 11.499C10.6825 11.5424 10.6336 11.5772 10.5793 11.6014C10.5249 11.6257 10.4661 11.6388 10.4065 11.64H0.455778C0.413703 11.6394 0.372695 11.6268 0.337686 11.6037C0.302678 11.5806 0.27516 11.5479 0.258443 11.5097C0.241726 11.4715 0.236522 11.4293 0.243455 11.3882C0.250389 11.3471 0.269166 11.3089 0.297529 11.2781L2.41173 8.96099ZM12.8404 7.04025C12.8688 7.07102 12.8875 7.10926 12.8944 7.15035C12.9014 7.19144 12.8962 7.23363 12.8794 7.27186C12.8627 7.3101 12.8352 7.34273 12.8002 7.36584C12.7651 7.38895 12.7242 7.40156 12.6821 7.40215L2.73456 7.40999C2.67495 7.40877 2.61617 7.39567 2.56179 7.37145C2.50741 7.34722 2.45852 7.31237 2.41807 7.26899L0.294364 4.95972C0.266002 4.92895 0.247225 4.89072 0.24029 4.84963C0.233356 4.80854 0.238561 4.76634 0.255278 4.72811C0.271995 4.68987 0.299512 4.65724 0.334521 4.63413C0.369529 4.61102 0.410538 4.59841 0.452614 4.59782L10.4002 4.58999C10.4598 4.5912 10.5185 4.6043 10.5729 4.62853C10.6273 4.65275 10.6762 4.6876 10.7167 4.73099L12.8404 7.04025ZM2.41173 0.500985C2.4522 0.457606 2.50108 0.422759 2.55546 0.398531C2.60985 0.374303 2.66861 0.361192 2.72824 0.359985L12.679 0.367819C12.721 0.368405 12.7621 0.381014 12.7971 0.404128C12.8321 0.427242 12.8595 0.459877 12.8762 0.498107C12.893 0.536338 12.8982 0.578535 12.8913 0.619624C12.8843 0.660714 12.8656 0.698945 12.8372 0.729719L10.723 3.03899C10.6825 3.08237 10.6336 3.11722 10.5793 3.14145C10.5249 3.16567 10.4661 3.17878 10.4065 3.17999H0.455778C0.413703 3.1794 0.372695 3.16679 0.337686 3.14368C0.302678 3.12057 0.27516 3.08792 0.258443 3.0497C0.241726 3.01147 0.236522 2.96927 0.243455 2.92818C0.250389 2.88709 0.269166 2.84886 0.297529 2.81809L2.41173 0.500985Z"
            fill="url(#paint0_linear_130:319)" />
    </g>
    <defs>
        <linearGradient id="paint0_linear_130:319" x1="0.62194" y1="11.8859" x2="12.3933" y2="-0.00428666"
            gradientUnits="userSpaceOnUse">
            <stop stop-color="#9945FF" />
            <stop offset="0.14" stop-color="#8A53F4" />
            <stop offset="0.42" stop-color="#6377D6" />
            <stop offset="0.79" stop-color="#24B0A7" />
            <stop offset="0.99" stop-color="#00D18C" />
            <stop offset="1" stop-color="#00D18C" />
        </linearGradient>
        <clipPath id="clip0_130:319">
            <rect width="94" height="11.28" fill="white" transform="translate(0 0.359985)" />
        </clipPath>
    </defs>
</svg>