<svg width="16" height="17" viewBox="0 0 16 17" fill="none" xmlns="http://www.w3.org/2000/svg">
    <path
        d="M8.1726 5.50014C9.93502 5.51614 11.326 6.93945 11.3011 8.70003C11.276 10.4613 9.83956 11.8506 8.08414 11.8116C6.34864 11.7732 4.9877 10.3806 4.9922 8.6482C4.9967 6.88826 6.41458 5.48415 8.1726 5.50014Z"
        fill="#868F97" />
    <path
        d="M12.1261 15.2319C9.37288 17.4475 4.45318 16.6546 1.90491 13.6729C-0.898226 10.393 -0.570899 5.47221 2.64403 2.55838C5.81982 -0.319605 10.7331 -0.160891 13.7284 2.91677C16.6359 5.90419 16.7647 10.8608 14.0435 13.6582C13.4082 12.9932 12.7722 12.327 12.1056 11.6294C13.1373 10.1882 13.4569 8.53899 12.8402 6.76817C11.9192 4.12441 9.00213 2.72926 6.34179 3.63035C3.71287 4.52056 2.27387 7.34863 3.09484 10.0109C3.92481 12.7027 6.74016 14.2316 9.44213 13.4022C9.98 13.2371 10.2785 13.3337 10.6263 13.7337C11.0861 14.2636 11.6182 14.7308 12.1261 15.2319Z"
        fill="#868F97" />
</svg>