<svg width="52" height="52" viewBox="0 0 52 52" fill="none" xmlns="http://www.w3.org/2000/svg">
    <path fill-rule="evenodd" clip-rule="evenodd"
        d="M25.8655 0L15.4327 2.47999L5 4.95997V18.0674C5 32.9571 12.6309 45.2424 25.4119 50.9295L25.8706 51.1337L26.3293 50.9295C39.2288 45.1894 46.9296 32.9049 46.9296 18.0495L46.7218 4.95668L36.2936 2.47834L25.8655 0Z"
        fill="black" />
    <path
        d="M33.1231 25.5669C33.1231 29.5205 29.9181 32.7256 25.9644 32.7256C22.0108 32.7256 18.8057 29.5205 18.8057 25.5669C18.8057 21.6132 22.0108 18.4082 25.9644 18.4082C29.9181 18.4082 33.1231 21.6132 33.1231 25.5669Z"
        stroke="white" stroke-width="2.93206" />
    <path
        d="M40.2819 25.5669C40.2819 33.4742 33.8717 39.8843 25.9644 39.8843C18.0571 39.8843 11.647 33.4742 11.647 25.5669C11.647 17.6596 18.0571 11.2495 25.9644 11.2495C33.8717 11.2495 40.2819 17.6596 40.2819 25.5669Z"
        stroke="white" stroke-width="2.93206" />
</svg>