<svg width="182" height="52" viewBox="0 0 182 52" fill="none" xmlns="http://www.w3.org/2000/svg">
    <g clip-path="url(#clip0_174:329)">
        <path
            d="M79.0442 48.797C92.9822 48.797 100.162 40.5307 100.162 29.5492V24.2395H79.8889V32.8678H87.9741C87.7328 36.307 85.44 39.3843 79.4062 39.3843C71.9243 39.3843 69.3298 33.9539 69.3298 26.9547V26.472C69.3298 18.6884 73.0104 13.982 79.1045 13.982C83.6902 13.982 86.2847 16.0939 86.8881 20.1365H99.1366C98.2919 8.91367 89.2412 4.26766 79.0442 4.26766C66.0715 4.26766 56.4175 13.1373 56.4175 26.291V26.7737C56.4175 39.6859 64.3821 48.797 79.0442 48.797Z"
            fill="black" />
        <path
            d="M118.451 40.772C114.288 40.772 112.176 37.8155 112.176 32.3851V31.9024C112.176 26.5926 114.409 23.7568 118.451 23.7568C122.554 23.7568 124.666 26.7133 124.666 32.023V32.5057C124.666 37.7551 122.494 40.772 118.451 40.772ZM118.391 48.797C128.105 48.797 135.648 42.6425 135.648 32.3851V31.9024C135.648 21.8863 128.166 15.6715 118.451 15.6715C108.677 15.6715 101.134 22.0673 101.134 32.2041V32.6868C101.134 42.8838 108.677 48.797 118.391 48.797Z"
            fill="black" />
        <path
            d="M137.945 48.0729H148.745V34.2555L157.253 48.0729H169.32L158.158 30.6956L168.476 16.5162H157.253L148.745 29.0062V2.63854H137.945V48.0729Z"
            fill="black" />
        <path
            d="M170.657 48.0729H181.457V16.5162H170.657V48.0729ZM176.027 13.4993C179.406 13.4993 182 11.1462 182 7.94827C182 4.75036 179.406 2.33685 176.027 2.33685C172.648 2.33685 170.114 4.75036 170.114 7.94827C170.114 11.1462 172.648 13.4993 176.027 13.4993Z"
            fill="black" />
        <path fill-rule="evenodd" clip-rule="evenodd"
            d="M20.8655 0L10.4327 2.47999L0 4.95997V18.0674C0 32.9571 7.6309 45.2424 20.4119 50.9295L20.8706 51.1337L21.3293 50.9295C34.2288 45.1894 41.9296 32.9049 41.9296 18.0495L41.7218 4.95668L31.2936 2.47834L20.8655 0Z"
            fill="black" />
        <path
            d="M28.1231 25.5669C28.1231 29.5205 24.9181 32.7256 20.9644 32.7256C17.0108 32.7256 13.8057 29.5205 13.8057 25.5669C13.8057 21.6132 17.0108 18.4082 20.9644 18.4082C24.9181 18.4082 28.1231 21.6132 28.1231 25.5669Z"
            stroke="white" stroke-width="2.93206" />
        <path
            d="M35.2819 25.5669C35.2819 33.4742 28.8717 39.8843 20.9644 39.8843C13.0571 39.8843 6.64697 33.4742 6.64697 25.5669C6.64697 17.6596 13.0571 11.2495 20.9644 11.2495C28.8717 11.2495 35.2819 17.6596 35.2819 25.5669Z"
            stroke="white" stroke-width="2.93206" />
    </g>
    <defs>
        <clipPath id="clip0_174:329">
            <rect width="182" height="52" fill="white" />
        </clipPath>
    </defs>
</svg>