<svg width="16px" height="16px" viewBox="0 0 80 70" fill="none" stroke="currentcolor" class="sc-qHwUR kydWPE">
    <path
        d="M79 68.6981H16.0953C12.644 68.6981 9.65647 66.2995 8.91066 62.9298L1.46072 29.2694C1.16536 27.9349 1.40389 26.5378 2.1253 25.3769V25.3769V25.3769C2.82506 24.2508 4.05682 23.566 5.38261 23.566H60.4256C63.7029 23.566 66.5852 25.7334 67.4949 28.8818L79 68.6981ZM79 68.6981V14.0104C79 12.9637 78.7767 11.9291 78.3451 10.9756L78.0562 10.3375C77.7639 9.6918 77.3372 9.1158 76.8047 8.64797V8.64797C75.8947 7.84853 74.7249 7.40764 73.5136 7.40764H59.8416C57.5735 7.40764 55.4322 6.36173 54.0379 4.57289L53.4625 3.83475C52.0682 2.04591 49.9269 1 47.6588 1H17.9752C16.6903 1 15.4278 1.33646 14.3133 1.9759L13.487 2.44998C12.5921 2.96342 11.8152 3.6593 11.2067 4.49245L10.4937 5.46864C9.57341 6.72862 9.07747 8.2485 9.07747 9.80876V24.0587">
    </path>
</svg>