<svg width="42" height="52" viewBox="0 0 42 52" fill="none" xmlns="http://www.w3.org/2000/svg">
    <path fill-rule="evenodd" clip-rule="evenodd"
        d="M20.8655 0L10.4327 2.47999L0 4.95997V18.0674C0 32.9571 7.6309 45.2424 20.4119 50.9295L20.8706 51.1337L21.3293 50.9295C34.2288 45.1894 41.9296 32.9049 41.9296 18.0495L41.7218 4.95668L31.2936 2.47834L20.8655 0Z"
        fill="black" />
    <path
        d="M28.1231 25.5669C28.1231 29.5205 24.9181 32.7256 20.9644 32.7256C17.0108 32.7256 13.8057 29.5205 13.8057 25.5669C13.8057 21.6132 17.0108 18.4082 20.9644 18.4082C24.9181 18.4082 28.1231 21.6132 28.1231 25.5669Z"
        stroke="white" stroke-width="2.93206" />
    <path
        d="M35.2819 25.5669C35.2819 33.4742 28.8717 39.8843 20.9644 39.8843C13.0571 39.8843 6.64697 33.4742 6.64697 25.5669C6.64697 17.6596 13.0571 11.2495 20.9644 11.2495C28.8717 11.2495 35.2819 17.6596 35.2819 25.5669Z"
        stroke="white" stroke-width="2.93206" />
</svg>