<svg width="80" height="18" viewBox="0 0 80 18" fill="none" xmlns="http://www.w3.org/2000/svg">
    <path
        d="M0 0H3.58974V2.00755H5.02564V0H8.97436V2.00755H10.4103V0H14V3.01132L11.1282 5.01887L11.8462 11.0415H2.15385L2.8718 5.01887L0 3.01132V0Z"
        fill="currentcolor" />
    <path d="M2.15385 12.3799H11.8462L14 15.0566V17.7333H0V15.0566L2.15385 12.3799Z" fill="currentcolor" />
    <path d="M22 5.32405H25.5625V14.932H27.9943V5.32405H31.5568V3.29564H22V5.32405Z" fill="currentcolor" />
    <path
        d="M32.179 14.932H34.5994V9.99451C34.5994 8.92064 35.3835 8.18201 36.4517 8.18201C36.7869 8.18201 37.2472 8.23883 37.4744 8.31269V6.16496C37.2585 6.11383 36.9574 6.07973 36.7131 6.07973C35.7358 6.07973 34.9347 6.64792 34.6165 7.72746H34.5256V6.20473H32.179V14.932Z"
        fill="currentcolor" />
    <path
        d="M38.7259 14.932H41.1463V6.20473H38.7259V14.932ZM39.9418 5.07973C40.6634 5.07973 41.2543 4.5286 41.2543 3.85246C41.2543 3.18201 40.6634 2.63087 39.9418 2.63087C39.2259 2.63087 38.6349 3.18201 38.6349 3.85246C38.6349 4.5286 39.2259 5.07973 39.9418 5.07973Z"
        fill="currentcolor" />
    <path
        d="M43.1307 14.932H45.517V13.5343H45.625C45.9602 14.2616 46.6932 15.0741 48.1023 15.0741C50.0909 15.0741 51.642 13.5002 51.642 10.5797C51.642 7.57973 50.0227 6.0911 48.108 6.0911C46.6477 6.0911 45.9489 6.96042 45.625 7.67064H45.5511V3.29564H43.1307V14.932ZM45.5 10.5684C45.5 9.01155 46.1591 8.01723 47.3352 8.01723C48.5341 8.01723 49.1705 9.05701 49.1705 10.5684C49.1705 12.0911 48.5227 13.1479 47.3352 13.1479C46.1705 13.1479 45.5 12.1252 45.5 10.5684Z"
        fill="currentcolor" />
    <path
        d="M57.2344 15.1025C59.3935 15.1025 60.848 14.0513 61.1889 12.432L58.9503 12.2843C58.706 12.9491 58.081 13.2956 57.2741 13.2956C56.0639 13.2956 55.2969 12.4945 55.2969 11.1934V11.1877H61.2401V10.5229C61.2401 7.55701 59.4446 6.0911 57.1378 6.0911C54.5696 6.0911 52.9048 7.91496 52.9048 10.6081C52.9048 13.3752 54.5469 15.1025 57.2344 15.1025ZM55.2969 9.68769C55.348 8.69337 56.1037 7.89792 57.1776 7.89792C58.2287 7.89792 58.956 8.64792 58.9616 9.68769H55.2969Z"
        fill="currentcolor" />
    <path
        d="M66.7628 15.1025C69.0866 15.1025 70.5469 13.7388 70.6605 11.7331H68.3764C68.2344 12.665 67.6207 13.1877 66.7912 13.1877C65.6605 13.1877 64.9276 12.2388 64.9276 10.5684C64.9276 8.92064 65.6662 7.97746 66.7912 7.97746C67.6776 7.97746 68.2457 8.56269 68.3764 9.43201H70.6605C70.5582 7.41496 69.0298 6.0911 66.7514 6.0911C64.1037 6.0911 62.4673 7.92633 62.4673 10.6025C62.4673 13.2559 64.0753 15.1025 66.7628 15.1025Z"
        fill="currentcolor" />
    <path
        d="M74.6989 15.0968C75.9886 15.0968 76.8239 14.5343 77.25 13.7218H77.3182V14.932H79.6136V9.04564C79.6136 6.9661 77.8523 6.0911 75.9091 6.0911C73.8182 6.0911 72.4432 7.0911 72.108 8.68201L74.3466 8.86383C74.5114 8.28428 75.0284 7.85814 75.8977 7.85814C76.7216 7.85814 77.1932 8.27292 77.1932 8.98883V9.02292C77.1932 9.58542 76.5966 9.65928 75.0795 9.80701C73.3523 9.9661 71.8011 10.5456 71.8011 12.4945C71.8011 14.2218 73.0341 15.0968 74.6989 15.0968ZM75.392 13.4263C74.6477 13.4263 74.1136 13.0797 74.1136 12.415C74.1136 11.7331 74.6761 11.3979 75.5284 11.2786C76.0568 11.2047 76.9205 11.0797 77.2102 10.8866V11.8127C77.2102 12.7275 76.4545 13.4263 75.392 13.4263Z"
        fill="currentcolor" />
</svg>